<svg xmlns="http://www.w3.org/2000/svg" version="1.1" xmlns:xlink="http://www.w3.org/1999/xlink" xmlns:svgjs="http://svgjs.com/svgjs" width="512" height="512" x="0" y="0" viewBox="0 0 64 64" style="enable-background:new 0 0 512 512" xml:space="preserve" class=""><g><path d="m34 34h24v24h-24z" fill="#e3e8f6" data-original="#e3e8f6"></path><path d="m37 51a4 4 0 0 0 4 4h17v-21h-21z" fill="#f8f7fe" data-original="#f8f7fe"></path><path d="m6 34h28v24h-28z" fill="#e3e8f6" data-original="#e3e8f6"></path><path d="m9 50a5 5 0 0 0 5 5h20v-21h-25z" fill="#f8f7fe" data-original="#f8f7fe"></path><path d="m20 42a7 7 0 0 0 -7 7v9h14v-9a7 7 0 0 0 -7-7z" fill="#a1cdf9" data-original="#a1cdf9"></path><path d="m20 42a6.962 6.962 0 0 0 -4 1.26v7.74a4 4 0 0 0 4 4h7v-6a7 7 0 0 0 -7-7z" fill="#c0dafb" data-original="#c0dafb"></path><path d="m2 58h60v4h-60z" fill="#4472b0" data-original="#4472b0"></path><path d="m6 60h56v-2h-58a2 2 0 0 0 2 2z" fill="#77a0d3" data-original="#77a0d3" class=""></path><path d="m45 20h-25l-16 14h56z" fill="#77a0d3" data-original="#77a0d3" class=""></path><path d="m59.732 18.991a10.5 10.5 0 0 0 -7.863-16.963q-.43-.028-.869-.028t-.869.028a10.5 10.5 0 0 0 -7.863 16.963l8.732 11.009z" fill="#aa2b24" data-original="#aa2b24"></path><path d="m52 2.045a10.5 10.5 0 0 0 -7.732 16.946l7.732 9.748 7.732-9.748a10.5 10.5 0 0 0 -7.732-16.946z" fill="#d24034" data-original="#d24034"></path><path d="m36 34-16-14-16 14z" fill="#4472b0" data-original="#4472b0"></path><rect fill="#ffffff" height="24" rx="1" width="2" x="33" y="34" data-original="#ffffff"></rect><path d="m58 54a3 3 0 0 0 -6 0 2 2 0 0 0 0 4h6a2 2 0 0 0 0-4z" fill="#559b38" data-original="#559b38"></path><path d="m58 56a3 3 0 0 0 -6 0 1.994 1.994 0 0 0 -1.723 1 1.994 1.994 0 0 0 1.723 1h6a1.994 1.994 0 0 0 1.723-1 1.994 1.994 0 0 0 -1.723-1z" fill="#6bc148" data-original="#6bc148"></path><path d="m12 54a3 3 0 0 0 -6 0 2 2 0 0 0 0 4h6a2 2 0 0 0 0-4z" fill="#559b38" data-original="#559b38"></path><path d="m12 56a3 3 0 0 0 -6 0 1.994 1.994 0 0 0 -1.723 1 1.994 1.994 0 0 0 1.723 1h6a1.994 1.994 0 0 0 1.723-1 1.994 1.994 0 0 0 -1.723-1z" fill="#6bc148" data-original="#6bc148"></path><path d="m41 38a3 3 0 0 1 3 3v7a0 0 0 0 1 0 0h-6a0 0 0 0 1 0 0v-7a3 3 0 0 1 3-3z" fill="#ffffff" data-original="#ffffff"></path><path d="m38 44h6v4h-6z" fill="#a1cdf9" data-original="#a1cdf9"></path><path d="m42 46h2v-2h-4a2 2 0 0 0 2 2z" fill="#c0dafb" data-original="#c0dafb"></path><path d="m16 50h2v2h-2z" fill="#f8f7fe" data-original="#f8f7fe"></path><circle cx="51" cy="13" fill="#e3e8f6" r="7" data-original="#e3e8f6"></circle><ellipse cx="52" cy="13" fill="#f8f7fe" rx="6" ry="6.92" data-original="#f8f7fe"></ellipse><path d="m51 38a3 3 0 0 1 3 3v7a0 0 0 0 1 0 0h-6a0 0 0 0 1 0 0v-7a3 3 0 0 1 3-3z" fill="#ffffff" data-original="#ffffff"></path><path d="m48 44h6v4h-6z" fill="#a1cdf9" data-original="#a1cdf9"></path><path d="m52 46h2v-2h-4a2 2 0 0 0 2 2z" fill="#c0dafb" data-original="#c0dafb"></path></g></svg>