<svg xmlns="http://www.w3.org/2000/svg" version="1.1" xmlns:xlink="http://www.w3.org/1999/xlink" xmlns:svgjs="http://svgjs.com/svgjs" width="512" height="512" x="0" y="0" viewBox="0 0 512.001 512.001" style="enable-background:new 0 0 512 512" xml:space="preserve" class=""><g>
<path style="" d="M92.212,495.044c-24.473,0-44.384-19.911-44.384-44.386v-53.09c0-6.649,5.39-12.04,12.04-12.04
	s12.04,5.391,12.04,12.04v53.09c0,11.197,9.109,20.305,20.303,20.305c11.198,0,20.306-9.109,20.306-20.305v-53.09
	c0-6.649,5.39-12.04,12.04-12.04c6.652,0,12.04,5.391,12.04,12.04v53.09C136.599,475.131,116.688,495.044,92.212,495.044z" fill="#37474f" data-original="#37474f"></path>
<path style="" d="M482.35,193.953l-8.258-15.634c-7.019-13.298-20.722-21.561-35.761-21.561H97.539
	c-8.866,0-16.054,7.189-16.054,16.054c0,7.792,5.552,14.279,12.913,15.741L58.685,367.465h-3.202
	c-8.866,0-16.054,7.189-16.054,16.054c0,8.869,7.189,16.054,16.054,16.054h399.157c31.629,0,57.361-25.727,57.361-57.357v-28.604
	C512,272.066,501.747,230.689,482.35,193.953z" fill="#afbdc4" data-original="#afbdc4" class=""></path>
<path style="" d="M482.35,193.953l-8.258-15.634c-7.019-13.298-20.722-21.561-35.761-21.561h-41.957
	c15.038,0,28.741,8.262,35.761,21.561l8.258,15.634c19.397,36.736,29.651,78.114,29.651,119.659v28.604
	c0,31.63-25.731,57.357-57.361,57.357h41.957c31.629,0,57.361-25.727,57.361-57.357v-28.604
	C512,272.066,501.747,230.689,482.35,193.953z" fill="#8fa3ad" data-original="#8fa3ad"></path>
<path style="" d="M415.728,12.946H170.906c-8.866,0-16.054,7.184-16.054,16.054v143.811
	c0,8.869,7.189,16.054,16.054,16.054h244.822c8.866,0,16.054-7.184,16.054-16.054V29C431.781,20.131,424.594,12.946,415.728,12.946z
	" fill="#ebeef0" data-original="#ebeef0"></path>
<path style="" d="M415.728,12.946h-30.713c8.866,0,16.054,7.184,16.054,16.054v143.811
	c0,8.869-7.189,16.054-16.054,16.054h30.713c8.866,0,16.054-7.184,16.054-16.054V29C431.781,20.131,424.594,12.946,415.728,12.946z" fill="#ced7db" data-original="#ced7db"></path>
<path style="" d="M415.728,367.465H170.906c-8.866,0-16.054,7.189-16.054,16.054v99.482
	c0,8.869,7.189,16.054,16.054,16.054h244.822c8.866,0,16.054-7.184,16.054-16.054v-99.482
	C431.781,374.652,424.594,367.465,415.728,367.465z" fill="#ebeef0" data-original="#ebeef0"></path>
<path style="" d="M415.728,367.465h-30.713c8.866,0,16.054,7.189,16.054,16.054v99.482
	c0,8.869-7.189,16.054-16.054,16.054h30.713c8.866,0,16.054-7.184,16.054-16.054v-99.482
	C431.781,374.652,424.594,367.465,415.728,367.465z" fill="#ced7db" data-original="#ced7db"></path>
<g>
	<path style="" d="M336.481,255.22c-7.964,0-14.447-6.481-14.447-14.447c0-7.966,6.483-14.447,14.447-14.447
		s14.447,6.481,14.447,14.447C350.928,248.74,344.446,255.22,336.481,255.22z" fill="#455a64" data-original="#455a64"></path>
	<path style="" d="M375.887,255.22c-7.964,0-14.447-6.481-14.447-14.447c0-7.966,6.483-14.447,14.447-14.447
		s14.447,6.481,14.447,14.447C390.334,248.74,383.851,255.22,375.887,255.22z" fill="#455a64" data-original="#455a64"></path>
	<path style="" d="M415.296,255.22c-7.964,0-14.447-6.481-14.447-14.447c0-7.966,6.483-14.447,14.447-14.447
		s14.447,6.481,14.447,14.447C429.743,248.74,423.261,255.22,415.296,255.22z" fill="#455a64" data-original="#455a64"></path>
	<path style="" d="M336.481,296.962c-7.964,0-14.447-6.481-14.447-14.447s6.483-14.447,14.447-14.447
		s14.447,6.481,14.447,14.447C350.928,290.482,344.446,296.962,336.481,296.962z" fill="#455a64" data-original="#455a64"></path>
	<path style="" d="M375.887,296.962c-7.964,0-14.447-6.481-14.447-14.447s6.483-14.447,14.447-14.447
		s14.447,6.481,14.447,14.447C390.334,290.482,383.851,296.962,375.887,296.962z" fill="#455a64" data-original="#455a64"></path>
	<path style="" d="M415.296,296.962c-7.964,0-14.447-6.481-14.447-14.447s6.483-14.447,14.447-14.447
		s14.447,6.481,14.447,14.447C429.743,290.482,423.261,296.962,415.296,296.962z" fill="#455a64" data-original="#455a64"></path>
	<path style="" d="M336.481,338.704c-7.964,0-14.447-6.481-14.447-14.447s6.483-14.447,14.447-14.447
		s14.447,6.481,14.447,14.447C350.928,332.223,344.446,338.704,336.481,338.704z" fill="#455a64" data-original="#455a64"></path>
	<path style="" d="M375.887,338.704c-7.964,0-14.447-6.481-14.447-14.447s6.483-14.447,14.447-14.447
		s14.447,6.481,14.447,14.447C390.334,332.223,383.851,338.704,375.887,338.704z" fill="#455a64" data-original="#455a64"></path>
	<path style="" d="M415.296,338.704c-7.964,0-14.447-6.481-14.447-14.447s6.483-14.447,14.447-14.447
		s14.447,6.481,14.447,14.447C429.743,332.223,423.261,338.704,415.296,338.704z" fill="#455a64" data-original="#455a64"></path>
</g>
<g>
	<path style="" d="M351.849,96.279h-117.06c-6.652,0-12.04-5.391-12.04-12.04c0-6.649,5.39-12.04,12.04-12.04H351.85
		c6.652,0,12.04,5.391,12.04,12.04C363.89,90.888,358.5,96.279,351.849,96.279z" fill="#37474f" data-original="#37474f"></path>
	<path style="" d="M351.849,134.408h-117.06c-6.652,0-12.04-5.391-12.04-12.04c0-6.649,5.39-12.04,12.04-12.04H351.85
		c6.652,0,12.04,5.391,12.04,12.04C363.89,129.017,358.5,134.408,351.849,134.408z" fill="#37474f" data-original="#37474f"></path>
</g>
<g>
	<path style="" d="M182.421,333.891h-33.613c-6.652,0-12.04-5.391-12.04-12.04s5.39-12.04,12.04-12.04h33.613
		c6.652,0,12.04,5.391,12.04,12.04S189.072,333.891,182.421,333.891z" fill="#455a64" data-original="#455a64"></path>
	<path style="" d="M279.41,333.891h-33.613c-6.652,0-12.04-5.391-12.04-12.04s5.39-12.04,12.04-12.04h33.613
		c6.652,0,12.04,5.391,12.04,12.04S286.062,333.891,279.41,333.891z" fill="#455a64" data-original="#455a64"></path>
</g>
<rect x="148.81" y="235.021" style="" width="130.437" height="43.144" fill="#2979fe" data-original="#2979fe"></rect>
<path style="" d="M279.246,294.22H148.808c-8.866,0-16.054-7.187-16.054-16.054v-43.144
	c0-8.867,7.189-16.054,16.054-16.054h130.438c8.866,0,16.054,7.187,16.054,16.054v43.144
	C295.3,287.033,288.112,294.22,279.246,294.22z M164.862,262.113h98.33v-11.037h-98.33V262.113z" fill="#3f51b4" data-original="#3f51b4" class=""></path>
<path style="" d="M66.426,124.649H53.308C23.912,124.649,0,148.566,0,177.961v182.354
	c0,29.392,23.912,53.304,53.308,53.304h13.119c29.395,0,53.308-23.912,53.308-53.304V177.961
	C119.734,148.566,95.822,124.649,66.426,124.649z" fill="#8fa3ad" data-original="#8fa3ad"></path>
<path style="" d="M66.426,124.649H53.308c-2.448,0-4.841,0.224-7.2,0.545c25.991,3.535,46.106,25.821,46.106,52.767
	v182.354c0,26.942-20.114,49.224-46.106,52.759c2.36,0.322,4.752,0.545,7.2,0.545h13.119c29.395,0,53.308-23.912,53.308-53.304
	V177.961C119.734,148.566,95.822,124.649,66.426,124.649z" fill="#788f9b" data-original="#788f9b"></path>
<g>
</g>
<g>
</g>
<g>
</g>
<g>
</g>
<g>
</g>
<g>
</g>
<g>
</g>
<g>
</g>
<g>
</g>
<g>
</g>
<g>
</g>
<g>
</g>
<g>
</g>
<g>
</g>
<g>
</g>
</g></svg>