<svg xmlns="http://www.w3.org/2000/svg" version="1.1" xmlns:xlink="http://www.w3.org/1999/xlink" xmlns:svgjs="http://svgjs.com/svgjs" width="512" height="512" x="0" y="0" viewBox="0 0 512 512" style="enable-background:new 0 0 512 512" xml:space="preserve" class=""><g><linearGradient id="linear-gradient" gradientUnits="userSpaceOnUse" x1="260.503" x2="260.503" y1="351.775" y2="32"><stop offset="0" stop-color="#9ed0db"></stop><stop offset=".5035" stop-color="#b4dae3"></stop><stop offset="1" stop-color="#c5e1ea"></stop></linearGradient><linearGradient id="linear-gradient-2" gradientTransform="matrix(.924 .383 -.383 .924 112.366 -12.717)" gradientUnits="userSpaceOnUse" x1="32" x2="144.301" y1="276.093" y2="276.093"><stop offset="0" stop-color="#ffd5b3"></stop><stop offset=".5132" stop-color="#f3c0a3"></stop><stop offset="1" stop-color="#eab198"></stop></linearGradient><linearGradient id="linear-gradient-3" gradientUnits="userSpaceOnUse" x1="101.987" x2="130.992" y1="262.229" y2="250.511"><stop offset="0" stop-color="#c7dbe2"></stop><stop offset=".0832" stop-color="#cddfe6"></stop><stop offset=".2983" stop-color="#d8e7ed"></stop><stop offset=".5363" stop-color="#dce9ef"></stop><stop offset=".7386" stop-color="#d8e6ed"></stop><stop offset=".942" stop-color="#ccdee5"></stop><stop offset="1" stop-color="#c7dbe2"></stop></linearGradient><linearGradient id="linear-gradient-4" gradientUnits="userSpaceOnUse" x1="42" x2="478.177" y1="330.526" y2="330.526"><stop offset="0" stop-color="#b5e1f4"></stop><stop offset=".3823" stop-color="#c6e7f6"></stop><stop offset="1" stop-color="#eaf5fb"></stop></linearGradient><linearGradient id="linear-gradient-5" x2="92.668" xlink:href="#linear-gradient-2" y1="357.349" y2="357.349"></linearGradient><linearGradient id="linear-gradient-6" gradientUnits="userSpaceOnUse" x1="84.73" x2="114.73" y1="357.349" y2="357.349"><stop offset="0" stop-color="#d6e9f2"></stop><stop offset=".0729" stop-color="#dbecf4"></stop><stop offset=".2929" stop-color="#e6f3f9"></stop><stop offset=".5363" stop-color="#eaf5fb"></stop><stop offset=".7436" stop-color="#e6f3f9"></stop><stop offset=".9521" stop-color="#daebf4"></stop><stop offset="1" stop-color="#d6e9f2"></stop></linearGradient><g id="Smooth-Virus"><g id="hygiene_glove_healthcare_protection-4" data-name="hygiene glove healthcare protection"><path d="m341.1787 135.4645c-6.9 2.8579-2.586 13.2989 4.3231 10.4371l108.3576-31.7329c24.1385-7.6351 29.7265 24.3355 9.2808 32.8044-26.33 10.9061-107.4119 38.3776-107.4119 38.3776-6.59 2.73-3.0061 12.6894 3.795 10.6261l100.1607-23.4118c19.9861-5.1914 27.8378 24.5566 10.5587 31.4165s-112.0727 34.4992-112.0727 34.4992c-6.4626 2.6769-3.1659 12.5306 3.6973 10.6687 3.8642-.8186 70.2405-16.2692 70.2405-16.2692 17.9293-5.6457 26.39 21.9385 3.157 32.19-21.3109 8.7425-109.0743 38.7894-146.4616 48.1625-36.231 9.0834-57.1464 21.5565-111.3966 5.44l-79.9175 33.1018-56.25-135.8 81.6068-33.8026c15.3007-25.4111 19.3715-50.7052 38.6472-70.3773 19.6284-20.032 43.0679-65.98 43.0679-65.98s6.6223-15.5553 14.9707-13.6529c12.7009 2.8942 22.45 31.6125 4.71 57.5973s-2.1859 47.2777 4.9449 46.3446 165.3445-67.8422 191.7317-74.0393 30.0472 24.6 13.911 33.1009c-14.6351 7.71-93.6506 40.2993-93.6506 40.2993" fill="url(#linear-gradient)" data-original="url(#linear-gradient)" class=""></path><path d="m57.816 202.598h60.668v146.989h-60.668z" fill="url(#linear-gradient-2)" transform="matrix(.924 -.383 .383 .924 -98.946 54.75)" data-original="url(#linear-gradient-2)"></path><path d="m133.52 336.85-56.25-135.8c-7.6-18.35 20.1279-29.8011 27.7168-11.48l56.25 135.8z" fill="url(#linear-gradient-3)" data-original="url(#linear-gradient-3)"></path><path d="m349.918 324.2554c-7.4681 0-7.4784 11.2969 0 11.2969l112.253 12.1494c25.2229 2.1834 18.1509 33.8589-3.9793 33.8589-28.4991 0-113.9221-5.6485-113.9221-5.6485-7.1333 0-7.6334 10.573-.56 11.2695l101.4957 16.7c20.4513 2.8522 16.3213 33.34-2.2676 33.0657s-116.7447-11.0153-116.7447-11.0153c-6.995 0-7.72 10.3653-.6669 11.2715 3.8834.7225 71.12 11.8492 71.12 11.8492 18.7251 1.6453 15.986 30.3676-9.4017 30.9473-23.0342-.0783-115.6155-5.9042-153.7438-11.552-36.9492-5.4732-61.0457-1.9535-104.9986-37.6042h-86.502v-146.9892h88.3305c23.86-17.6215 37.301-39.4324 62.6376-50.2305 25.8-10.9957 65.0391-44.4762 65.0391-44.4762s12.071-11.837 19.0558-6.8847c10.6266 7.5343 8.6436 37.7975-17.69 55.0156s-20.1119 42.8423-13.1668 44.7091 178.7205.597 205.4706 4.97 18.3461 34.2258.1849 35.9047c-16.4717 1.5228-101.9438 1.3932-101.9438 1.3932" fill="url(#linear-gradient-4)" data-original="url(#linear-gradient-4)" class=""></path><path d="m32 283.855h60.668v146.989h-60.668z" fill="url(#linear-gradient-5)" data-original="url(#linear-gradient-5)" class=""></path><path d="m84.73 430.8438v-146.9893c0-19.8325 30-19.8594 30 0v146.9893c0 19.8324-30 19.8593-30 0z" fill="url(#linear-gradient-6)" data-original="url(#linear-gradient-6)" class=""></path></g></g></g></svg>