<svg xmlns="http://www.w3.org/2000/svg" version="1.1" xmlns:xlink="http://www.w3.org/1999/xlink" xmlns:svgjs="http://svgjs.com/svgjs" width="512" height="512" x="0" y="0" viewBox="0 0 128 128" style="enable-background:new 0 0 512 512" xml:space="preserve" class=""><g><linearGradient id="linear-gradient" gradientUnits="userSpaceOnUse" x1="64" x2="64" y1="90.544" y2="36.107"><stop offset="0" stop-color="#46395e"></stop><stop offset=".0609" stop-color="#493c61"></stop><stop offset=".6613" stop-color="#655b7a"></stop><stop offset="1" stop-color="#706683"></stop></linearGradient><radialGradient id="radial-gradient" cx="29.527" cy="49.739" gradientUnits="userSpaceOnUse" r="75.207"><stop offset="0" stop-color="#b4e1e9"></stop><stop offset=".4664" stop-color="#b2e0e8"></stop><stop offset=".6928" stop-color="#aadbe3"></stop><stop offset=".8669" stop-color="#9dd3dc"></stop><stop offset="1" stop-color="#8dc9d3"></stop></radialGradient><linearGradient id="linear-gradient-2" gradientUnits="userSpaceOnUse" x1="64" x2="64" y1="63.458" y2="61.458"><stop offset="0" stop-color="#78c7c9"></stop><stop offset=".386" stop-color="#77c4c8"></stop><stop offset=".6309" stop-color="#72bcc4"></stop><stop offset=".836" stop-color="#6badbe"></stop><stop offset="1" stop-color="#629bb7"></stop></linearGradient><linearGradient id="linear-gradient-3" x1="64.111" x2="64.111" xlink:href="#linear-gradient-2" y1="73.893" y2="71.893"></linearGradient><linearGradient id="linear-gradient-4" x1="64.111" x2="64.111" xlink:href="#linear-gradient-2" y1="84.328" y2="82.328"></linearGradient><radialGradient id="radial-gradient-2" cx="29.577" cy="29.832" r="74.716" xlink:href="#linear-gradient-2"></radialGradient><g id="Face_Mask" data-name="Face Mask"><path d="m91.1787 90.5444h-54.3574c-21.2295 0-26.4424-21.0815-27.5352-27.5424-2.1406-12.6675.7784-24.5953 6.5069-26.5889 2.957-1.03 7.7461.0478 13.7656 11.0058l1.4023 2.647-1.7675.9365-1.3955-2.6337c-4.1641-7.5821-8.1954-11.1651-11.3479-10.0665-4.6846 1.63-7.11 13.0162-5.1914 24.3663 1.0254 6.07 5.9014 25.8759 25.5625 25.8759h54.3576c19.6611 0 24.5371-19.8056 25.5625-25.8759 1.919-11.35-.5068-22.7364-5.1914-24.3663-3.1514-1.0991-7.1836 2.4839-11.3545 10.08l-1.5353 2.6847-1.7364-.9922 1.5264-2.67c6.0117-10.9458 10.7959-12.021 13.7568-10.9912 5.7285 1.9936 8.6475 13.9214 6.5069 26.5889-1.0926 6.4605-6.3055 27.542-27.535 27.542z" fill="url(#linear-gradient)" data-original="url(#linear-gradient)"></path><path d="m98.9015 59.0321c-2.8226 24.2614-2.7461 24.4386-4.0571 27.0252-3.8161 7.5292-22.4767 14.6843-30.9013 16.9641a105.151 105.151 0 0 1 -13.79-4.9349c-7.4331-3.2594-14.8557-7.5786-17.1114-12.0292-1.311-2.5864-1.2346-2.7638-4.0568-27.0218 0 0 17.429-20.2829 35.1259-20.2829s34.7907 20.2795 34.7907 20.2795z" fill="url(#radial-gradient)" data-original="url(#radial-gradient)"></path><path d="m81.8984 63.458h-35.7968a1 1 0 0 1 0-2h35.7968a1 1 0 0 1 0 2z" fill="url(#linear-gradient-2)" data-original="url(#linear-gradient-2)"></path><path d="m77.01 73.8931h-25.7981a1 1 0 0 1 0-2h25.7981a1 1 0 0 1 0 2z" fill="url(#linear-gradient-3)" data-original="url(#linear-gradient-3)"></path><path d="m72.01 84.3281h-15.7981a1 1 0 0 1 0-2h15.7981a1 1 0 0 1 0 2z" fill="url(#linear-gradient-4)" data-original="url(#linear-gradient-4)"></path><path d="m100.2047 47.9006c-25.1179-7.6932-30.5233-16.7156-36.2616-16.7156-5.7407 0-11.1161 9.0139-36.2618 16.7156.4945 4.1947.9243 7.8749 1.3036 11.1349 24.0187-7.5394 29.3192-14.3076 34.9582-14.3076s10.955 6.773 34.9581 14.3076c.3793-3.26.8088-6.9402 1.3035-11.1349z" fill="url(#radial-gradient-2)" data-original="url(#radial-gradient-2)" class=""></path></g></g></svg>