<svg xmlns="http://www.w3.org/2000/svg" version="1.1" xmlns:xlink="http://www.w3.org/1999/xlink" xmlns:svgjs="http://svgjs.com/svgjs" width="512" height="512" x="0" y="0" viewBox="0 0 512 512" style="enable-background:new 0 0 512 512" xml:space="preserve" class=""><g><g><path d="m406 31h-60-60c-57.891 0-106 47.109-106 105 0 52.808 40.185 96.636 91 103.931v46.069c0 6.064 3.647 11.543 9.258 13.857 5.533 2.309 12.023 1.071 16.348-3.252l49.394-49.394 6.211-6.211h53.789c57.891 0 106-47.109 106-105s-48.109-105-106-105z" fill="#fed843" data-original="#fed843" class=""></path><path d="m406 241c57.891 0 106-47.109 106-105s-48.109-105-106-105h-60v216.211l6.211-6.211z" fill="#fabe2c" data-original="#fabe2c"></path><path d="m382 376v60c0 26.1-21.31 45-44.79 45-86.41 0-170.71-40.85-233.41-103.3s-103.8-146.5-103.8-232.91c0-24.82 20.19-44.79 45-44.79h60c6.46 0 12.19 4.13 14.22 10.25l30 89.79c1.47 4.4.82 9.22-1.74 13.07l-25.44 38.17c9.64 20.22 26.7 42.32 46.4 61.78 19.71 19.45 42.06 36.26 62.28 45.9l38.17-25.44c3.87-2.55 8.67-3.22 13.07-1.74l90 30c6.12 2.03 10.04 7.76 10.04 14.22z" fill="#a034db" data-original="#ff641a" class=""></path><path d="m382 376v60c0 26.1-21.31 45-44.79 45-86.41 0-170.71-40.85-233.41-103.3l64.64-64.64c19.71 19.45 42.06 36.26 62.28 45.9l38.17-25.44c3.87-2.55 8.67-3.22 13.07-1.74l90 30c6.12 2.03 10.04 7.76 10.04 14.22z" fill="#a618f3" data-original="#f03800" class=""></path><circle cx="285.999" cy="135.999" fill="#ffffff" r="15" data-original="#613d5c" class=""></circle><circle cx="346" cy="135.998" fill="#ffffff" r="15" data-original="#613d5c" class=""></circle><g fill="#4b2746"><path d="m361 135.998c0-8.284-6.716-15-15-15v30c8.284 0 15-6.716 15-15z" fill="#ffffff" data-original="#4b2746" class=""></path><circle cx="405.999" cy="135.999" r="15" fill="#ffffff" data-original="#4b2746" class=""></circle></g></g></g></svg>