<svg xmlns="http://www.w3.org/2000/svg" version="1.1" xmlns:xlink="http://www.w3.org/1999/xlink" xmlns:svgjs="http://svgjs.com/svgjs" width="512" height="512" x="0" y="0" viewBox="0 0 64 64" style="enable-background:new 0 0 512 512" xml:space="preserve" class=""><g><linearGradient id="lg1"><stop offset="0" stop-color="#a3d8f7"></stop><stop offset="1" stop-color="#78b7e9"></stop></linearGradient><linearGradient id="SVGID_1_" gradientUnits="userSpaceOnUse" x1="20" x2="20" xlink:href="#lg1" y1="0" y2="6"></linearGradient><linearGradient id="SVGID_2_" gradientUnits="userSpaceOnUse" x1="24" x2="24" xlink:href="#lg1" y1="4" y2="15"></linearGradient><linearGradient id="lg2"><stop offset="0" stop-color="#e3e3e4"></stop><stop offset="1" stop-color="#d8d8da"></stop></linearGradient><linearGradient id="SVGID_3_" gradientUnits="userSpaceOnUse" x1="12" x2="12" xlink:href="#lg2" y1="10" y2="18"></linearGradient><linearGradient id="SVGID_4_" gradientUnits="userSpaceOnUse" x1="32" x2="32" xlink:href="#lg1" y1="8" y2="14"></linearGradient><linearGradient id="SVGID_5_" gradientUnits="userSpaceOnUse" x1="12" x2="12" xlink:href="#lg1" y1="16" y2="22"></linearGradient><linearGradient id="SVGID_6_" gradientUnits="userSpaceOnUse" x1="32" x2="32" xlink:href="#lg1" y1="12" y2="20"></linearGradient><linearGradient id="SVGID_7_" gradientUnits="userSpaceOnUse" x1="12" x2="12" xlink:href="#lg2" y1="20" y2="28"></linearGradient><linearGradient id="SVGID_8_" gradientUnits="userSpaceOnUse" x1="53" x2="53" y1="14" y2="22"><stop offset="0" stop-color="#94deb9"></stop><stop offset="1" stop-color="#36cb8e"></stop></linearGradient><linearGradient id="SVGID_9_" gradientUnits="userSpaceOnUse" x1="32" x2="32" xlink:href="#lg2" y1="18" y2="28"></linearGradient><linearGradient id="SVGID_10_" gradientUnits="userSpaceOnUse" x1="53" x2="53" xlink:href="#lg2" y1="20" y2="28"></linearGradient><linearGradient id="SVGID_11_" gradientUnits="userSpaceOnUse" x1="32" x2="32" xlink:href="#lg1" y1="26" y2="64"></linearGradient><linearGradient id="SVGID_12_" gradientUnits="userSpaceOnUse" x1="32" x2="32" y1="38" y2="52"><stop offset="0" stop-color="#ffbbab"></stop><stop offset="1" stop-color="#fb9277"></stop></linearGradient><linearGradient id="SVGID_13_" gradientUnits="userSpaceOnUse" x1="31" x2="31" xlink:href="#lg2" y1="0" y2="10"></linearGradient><g><path d="m22 0h-4c-.552 0-1 .448-1 1v4c0 .552.448 1 1 1h4c.552 0 1-.448 1-1v-4c0-.552-.448-1-1-1z" fill="url(#SVGID_1_)" data-original="url(#SVGID_1_)"></path><path d="m26.707 8.293-4-4c-.287-.287-.716-.372-1.09-.217-.373.155-.617.52-.617.924v9c0 .552.448 1 1 1 2.757 0 5-2.243 5-5v-1c0-.265-.105-.519-.293-.707z" fill="url(#SVGID_2_)" data-original="url(#SVGID_2_)"></path><path d="m14 10h-4c-.552 0-1 .448-1 1v6c0 .552.448 1 1 1h4c.552 0 1-.448 1-1v-6c0-.552-.448-1-1-1z" fill="url(#SVGID_3_)" data-original="url(#SVGID_3_)"></path><path d="m35 8h-6c-.552 0-1 .448-1 1v4c0 .552.448 1 1 1h6c.552 0 1-.448 1-1v-4c0-.552-.448-1-1-1z" fill="url(#SVGID_4_)" data-original="url(#SVGID_4_)"></path><path d="m14 16h-4c-1.103 0-2 .897-2 2v3c0 .552.448 1 1 1h6c.552 0 1-.448 1-1v-3c0-1.103-.897-2-2-2z" fill="url(#SVGID_5_)" data-original="url(#SVGID_5_)"></path><path d="m35 12h-6c-1.654 0-3 1.346-3 3v4c0 .552.448 1 1 1h10c.552 0 1-.448 1-1v-4c0-1.654-1.346-3-3-3z" fill="url(#SVGID_6_)" data-original="url(#SVGID_6_)"></path><path d="m15 20h-6c-2.206 0-4 1.794-4 4v3c0 .552.448 1 1 1h12c.552 0 1-.448 1-1v-3c0-2.206-1.794-4-4-4z" fill="url(#SVGID_7_)" data-original="url(#SVGID_7_)"></path><path d="m56 14h-6c-1.103 0-2 .897-2 2v5c0 .552.448 1 1 1h8c.552 0 1-.448 1-1v-5c0-1.103-.897-2-2-2z" fill="url(#SVGID_8_)" data-original="url(#SVGID_8_)"></path><path d="m38 18h-12c-2.757 0-5 2.243-5 5v4c0 .552.448 1 1 1h20c.552 0 1-.448 1-1v-4c0-2.757-2.243-5-5-5z" fill="url(#SVGID_9_)" data-original="url(#SVGID_9_)"></path><path d="m58 20h-10c-1.654 0-3 1.346-3 3v4c0 .552.448 1 1 1h14c.552 0 1-.448 1-1v-4c0-1.654-1.346-3-3-3z" fill="url(#SVGID_10_)" data-original="url(#SVGID_10_)"></path><path d="m63 26h-62c-.552 0-1 .448-1 1v34c0 1.654 1.346 3 3 3h58c1.654 0 3-1.346 3-3v-34c0-.552-.448-1-1-1z" fill="url(#SVGID_11_)" data-original="url(#SVGID_11_)"></path><path d="m38 42h-3v-3c0-.553-.448-1-1-1h-4c-.552 0-1 .447-1 1v3h-3c-.552 0-1 .447-1 1v4c0 .553.448 1 1 1h3v3c0 .553.448 1 1 1h4c.552 0 1-.447 1-1v-3h3c.552 0 1-.447 1-1v-4c0-.553-.448-1-1-1z" fill="url(#SVGID_12_)" data-original="url(#SVGID_12_)"></path></g><path d="m35 0h-14v4 1 1h.586l3.707 3.707c.188.188.442.293.707.293h14c.552 0 1-.448 1-1v-3c0-3.314-2.686-6-6-6z" fill="url(#SVGID_13_)" data-original="url(#SVGID_13_)"></path></g></svg>