<svg xmlns="http://www.w3.org/2000/svg" version="1.1" xmlns:xlink="http://www.w3.org/1999/xlink" xmlns:svgjs="http://svgjs.com/svgjs" width="512" height="512" x="0" y="0" viewBox="0 0 110 110" style="enable-background:new 0 0 512 512" xml:space="preserve" class=""><g><g id="_27._24H" data-name="27. 24H"><circle cx="55" cy="55" fill="#e7efff" r="50" data-original="#e7efff"></circle><circle cx="17" cy="4" fill="#00c99f" r="3" data-original="#00c99f"></circle><circle cx="106" cy="13" fill="#ff4d69" r="3" data-original="#ff4d69"></circle><circle cx="97" cy="106" fill="#00c99f" r="3" data-original="#00c99f"></circle><circle cx="4" cy="99" fill="#ffa100" r="3" data-original="#ffa100"></circle><circle cx="55" cy="54" fill="#8fa2ff" r="38" data-original="#8fa2ff"></circle><path d="m98 50h-3.2a40 40 0 1 0 -4.56 23 2 2 0 0 0 -3.53-1.9 36 36 0 1 1 4.06-21h-2.77a2 2 0 0 0 -1.63 3.16l5 7a2 2 0 0 0 3.26 0l5-7a2 2 0 0 0 -1.63-3.26z" fill="#ffa100" data-original="#ffa100"></path><path d="m49.39 55.75 2.49-.75a7.16 7.16 0 0 0 -2.06-14 6.85 6.85 0 0 0 -6.82 6.82 2 2 0 1 0 4 0 2.84 2.84 0 0 1 2.82-2.82 3.16 3.16 0 0 1 .91 6.19l-2.49.74a7.34 7.34 0 0 0 -5.24 7.07 2 2 0 0 0 2 2h10a2 2 0 0 0 0-4h-7.37a3.29 3.29 0 0 1 1.76-1.25z" fill="#ffffff" data-original="#ffffff" class=""></path><path d="m72 52.28v-3.28a2 2 0 0 0 -4 0v3h-3.6l1.6-8.64a2 2 0 0 0 -4-.72l-2 11a2 2 0 0 0 2 2.36h6v3a2 2 0 0 0 4 0v-3.28a2 2 0 0 0 0-3.44z" fill="#ffffff" data-original="#ffffff" class=""></path><path d="m5.7 34.86 7.53-7.53a6 6 0 0 1 8.49 0l10.6 10.61a6 6 0 0 1 1.31 6.52l-3.43 8.32 25.46 25.46 8.34-3.43a6 6 0 0 1 6.53 1.31l10.6 10.61a6 6 0 0 1 0 8.48l-7.53 7.53a10 10 0 0 1 -9 2.74l-13.41-2.68a10 10 0 0 1 -4.62-2.27 403.18 403.18 0 0 1 -38.51-38.53 10 10 0 0 1 -2.42-4.79l-2.64-13.32a10 10 0 0 1 2.7-9.03z" fill="#4e6aff" data-original="#4e6aff"></path><g fill="#323fd4"><path d="m12.79 67.37 2.56-2.56a4 4 0 0 1 5.66 0l22.63 22.62a4 4 0 0 1 0 5.66l-2.56 2.56q-14.83-13.42-28.29-28.28z" fill="#323fd4" data-original="#323fd4"></path><path d="m59.67 76.59 4.33-1.78a6 6 0 0 1 6.53 1.31l10.6 10.61a6 6 0 0 1 0 8.48l-1.43 1.42z" fill="#323fd4" data-original="#323fd4"></path><path d="m11.82 28.74 1.41-1.41a6 6 0 0 1 8.49 0l10.6 10.61a6 6 0 0 1 1.31 6.52l-1.78 4.32z" fill="#323fd4" data-original="#323fd4"></path></g><path d="m80 35a1 1 0 0 0 -1 1v3h-4v-3a1 1 0 0 0 -2 0v8a1 1 0 0 0 2 0v-3h4v3a1 1 0 0 0 2 0v-8a1 1 0 0 0 -1-1z" fill="#ffffff" data-original="#ffffff" class=""></path></g></g></svg>