<svg id="Layer_1" data-name="Layer 1" xmlns="http://www.w3.org/2000/svg" xmlns:xlink="http://www.w3.org/1999/xlink" viewBox="0 0 501.99 136.78"><defs><style>.cls-1{fill:url(#linear-gradient);}.cls-2{fill:url(#linear-gradient-2);}.cls-3{fill:#fff;}</style><linearGradient id="linear-gradient" x1="91.18" y1="-67.98" x2="84.59" y2="73.78" gradientUnits="userSpaceOnUse"><stop offset="0.01" stop-color="#1877f2"/><stop offset="1" stop-color="#9540e0"/></linearGradient><linearGradient id="linear-gradient-2" x1="79.86" y1="-68.5" x2="73.26" y2="73.26" xlink:href="#linear-gradient"/></defs><path class="cls-1" d="M104.91,63.44a3,3,0,0,1-2.5-1.33,16.67,16.67,0,0,0-6.33-5.67A23.36,23.36,0,0,0,85.16,54q-10.86,0-17.4,7.13t-6.54,19q0,12.69,6.87,19.82T87,107.14A22.8,22.8,0,0,0,100.92,103a21.74,21.74,0,0,0,6.44-7.62,3,3,0,0,0-2.68-4.41H83.86a3,3,0,0,1-3-3V77.45a3,3,0,0,1,3-3h42.63a3,3,0,0,1,3,3V94.76a2.91,2.91,0,0,1-.14.93,43.85,43.85,0,0,1-8.3,15.11A44.62,44.62,0,0,1,106,122.45a46.81,46.81,0,0,1-20.67,4.45,48.93,48.93,0,0,1-24.27-6A42.39,42.39,0,0,1,44.4,104.39a48.52,48.52,0,0,1-5.95-24.2A48.93,48.93,0,0,1,44.4,55.92,42.45,42.45,0,0,1,61,39.3a48.69,48.69,0,0,1,24.21-5.95q16.49,0,27.8,8a37,37,0,0,1,13.72,18,3,3,0,0,1-2.84,4.07Z" transform="translate(-5 -2.09)"/><path class="cls-2" d="M134.72,138.87H12.07A7.07,7.07,0,0,1,5,131.81V9.16a7.08,7.08,0,0,1,7.07-7.07H136a5.8,5.8,0,0,1,5.79,5.79V131.81A7.07,7.07,0,0,1,134.72,138.87ZM12.07,7.88a1.28,1.28,0,0,0-1.28,1.28V131.81a1.27,1.27,0,0,0,1.28,1.27H134.72a1.27,1.27,0,0,0,1.27-1.27V7.88Z" transform="translate(-5 -2.09)"/><rect class="cls-3" x="115.28" y="115.57" width="9.23" height="9.23" rx="1.5"/><path class="cls-3" d="M199.9,29a1,1,0,0,1-.82-.48,11,11,0,0,0-4.44-4.15,15.35,15.35,0,0,0-7.22-1.6,14.85,14.85,0,0,0-11.5,4.71q-4.33,4.71-4.33,12.59,0,8.39,4.54,13.1t12.5,4.71a14.4,14.4,0,0,0,14.22-9.4,1,1,0,0,0-.89-1.32H185.52a1,1,0,0,1-1-1v-9a1,1,0,0,1,1-1h30.27a1,1,0,0,1,1,1V49.83a.92.92,0,0,1,0,.29,28.91,28.91,0,0,1-5.54,10.15,29.26,29.26,0,0,1-10,7.7,30.85,30.85,0,0,1-13.66,2.94,32.4,32.4,0,0,1-16-3.93,28,28,0,0,1-11-10.94,32.05,32.05,0,0,1-3.94-16,32.3,32.3,0,0,1,3.94-16,28,28,0,0,1,10.94-11,32,32,0,0,1,16-3.94q10.91,0,18.38,5.28a24.66,24.66,0,0,1,9.55,13.37,1,1,0,0,1-.91,1.25Z" transform="translate(-5 -2.09)"/><path class="cls-3" d="M262.07,59.76H240.78a1,1,0,0,0-.91.64l-3.19,9.43a1,1,0,0,1-.9.65H222.34a1,1,0,0,1-.9-1.28l21.28-58.81a1,1,0,0,1,.9-.63H259.4a1,1,0,0,1,.9.63L281.58,69.2a1,1,0,0,1-.9,1.28H267.07a1,1,0,0,1-.9-.65L263,60.4A1,1,0,0,0,262.07,59.76Zm-3.55-12.68L252.33,28.8a1,1,0,0,0-1.81,0l-6.11,18.28a1,1,0,0,0,.9,1.26h12.31A1,1,0,0,0,258.52,47.08Z" transform="translate(-5 -2.09)"/><path class="cls-3" d="M304.45,59.06h17.46a1,1,0,0,1,1,1v9.51a1,1,0,0,1-1,1H289.66a1,1,0,0,1-1-1V10.72a1,1,0,0,1,1-1h12.88a1,1,0,0,1,.95,1V58.11A1,1,0,0,0,304.45,59.06Z" transform="translate(-5 -2.09)"/><path class="cls-3" d="M367.07,59.76H345.78a1,1,0,0,0-.91.64l-3.19,9.43a1,1,0,0,1-.9.65H327.34a1,1,0,0,1-.9-1.28l21.28-58.81a1,1,0,0,1,.9-.63H364.4a1,1,0,0,1,.9.63L386.58,69.2a1,1,0,0,1-.9,1.28H372.07a1,1,0,0,1-.9-.65L368,60.4A1,1,0,0,0,367.07,59.76Zm-3.55-12.68L357.33,28.8a1,1,0,0,0-1.81,0l-6.11,18.28a1,1,0,0,0,.9,1.26h12.31A1,1,0,0,0,363.52,47.08Z" transform="translate(-5 -2.09)"/><path class="cls-3" d="M430.61,70.06l-11.24-16.9a1,1,0,0,0-1.62,0L407.9,70a1,1,0,0,1-.82.47h-14.5a1,1,0,0,1-.81-1.46L410,40.13a1,1,0,0,0,0-1L391.4,11.25a1,1,0,0,1,.8-1.49h14.91a1,1,0,0,1,.8.43L419,26.83a1,1,0,0,0,1.62,0l9.68-16.54a.94.94,0,0,1,.82-.48H445.6a1,1,0,0,1,.8,1.47l-18,28.63a1,1,0,0,0,0,1L447.11,69a1,1,0,0,1-.79,1.48H431.4A1,1,0,0,1,430.61,70.06Z" transform="translate(-5 -2.09)"/><path class="cls-3" d="M506.89,11.16,486.7,50.21a.93.93,0,0,0-.11.44V69.53a1,1,0,0,1-.95,1H472.76a1,1,0,0,1-1-1V50.65a.92.92,0,0,0-.1-.44l-20.2-39a1,1,0,0,1,.85-1.4H467a1,1,0,0,1,.87.56l10.64,23a1,1,0,0,0,1.73,0l10.56-23a1,1,0,0,1,.87-.56H506A1,1,0,0,1,506.89,11.16Z" transform="translate(-5 -2.09)"/><path class="cls-3" d="M163.69,123.55h.84a.33.33,0,0,1,.27.15l2.77,4.47h.08l2.76-4.47a.33.33,0,0,1,.27-.15h.84l-3.38,5.36a.69.69,0,0,0-.09.34v4h-.88v-4a.61.61,0,0,0-.1-.34Z" transform="translate(-5 -2.09)"/><path class="cls-3" d="M180.7,133.44A2.92,2.92,0,0,1,179,133a3.27,3.27,0,0,1-1.12-1.33,4.52,4.52,0,0,1-.4-2,4.58,4.58,0,0,1,.4-2,3.33,3.33,0,0,1,1.12-1.33,3,3,0,0,1,1.66-.47,2.91,2.91,0,0,1,1.65.48,3.19,3.19,0,0,1,1.12,1.33,5,5,0,0,1,0,3.93,3.29,3.29,0,0,1-1.13,1.33A2.91,2.91,0,0,1,180.7,133.44Zm0-.78a2,2,0,0,0,1.27-.4,2.61,2.61,0,0,0,.8-1.09,4.08,4.08,0,0,0,.27-1.5,4,4,0,0,0-.27-1.5,2.58,2.58,0,0,0-.8-1.1,2.17,2.17,0,0,0-2.54,0,2.58,2.58,0,0,0-.8,1.1,4,4,0,0,0-.27,1.5,4.08,4.08,0,0,0,.27,1.5,2.59,2.59,0,0,0,.79,1.09A2,2,0,0,0,180.7,132.66Z" transform="translate(-5 -2.09)"/><path class="cls-3" d="M196.21,130.5V126h.84v7.3h-.84v-1.21h-.06a2.25,2.25,0,0,1-.81.93,2.32,2.32,0,0,1-1.34.37,2.44,2.44,0,0,1-1.23-.3,2.2,2.2,0,0,1-.85-.91,3.17,3.17,0,0,1-.3-1.45V126h.84v4.67A1.89,1.89,0,0,0,193,132a1.67,1.67,0,0,0,1.28.52,2,2,0,0,0,.94-.24,2,2,0,0,0,.74-.69A2,2,0,0,0,196.21,130.5Z" transform="translate(-5 -2.09)"/><path class="cls-3" d="M205.16,133.29V126H206v1.12H206a1.75,1.75,0,0,1,.75-.89,2.22,2.22,0,0,1,1.22-.34h.45v.86l-.2,0-.31,0a2.05,2.05,0,0,0-1,.24,1.74,1.74,0,0,0-.7.67,1.81,1.81,0,0,0-.25,1v4.72Z" transform="translate(-5 -2.09)"/><path class="cls-3" d="M230.82,126a1.76,1.76,0,0,0-.71-1.3,2.55,2.55,0,0,0-1.59-.48,2.73,2.73,0,0,0-1.18.24,1.9,1.9,0,0,0-.8.64,1.53,1.53,0,0,0-.29.93,1.34,1.34,0,0,0,.16.68,1.5,1.5,0,0,0,.45.49,3.14,3.14,0,0,0,.62.36,6.37,6.37,0,0,0,.69.25l1,.29a9.29,9.29,0,0,1,.92.33,3.52,3.52,0,0,1,.84.5,2.34,2.34,0,0,1,.62.74,2.13,2.13,0,0,1,.23,1,2.49,2.49,0,0,1-.4,1.4,2.67,2.67,0,0,1-1.15,1,4.05,4.05,0,0,1-1.79.36,4.11,4.11,0,0,1-1.71-.33,2.8,2.8,0,0,1-1.14-.91,2.6,2.6,0,0,1-.46-1.36h.39a.64.64,0,0,1,.6.46,1.78,1.78,0,0,0,.29.52,2,2,0,0,0,.85.6,3.48,3.48,0,0,0,2.46,0,2.23,2.23,0,0,0,.89-.69,1.7,1.7,0,0,0,.32-1,1.32,1.32,0,0,0-.25-.83,2.05,2.05,0,0,0-.71-.57,7,7,0,0,0-1.05-.4l-1.16-.34a4.38,4.38,0,0,1-1.76-1,2,2,0,0,1-.62-1.54,2.41,2.41,0,0,1,.41-1.38,2.8,2.8,0,0,1,1.13-.93,3.8,3.8,0,0,1,1.61-.34,3.71,3.71,0,0,1,1.59.34,2.81,2.81,0,0,1,1.1.91,2.45,2.45,0,0,1,.43,1.33Z" transform="translate(-5 -2.09)"/><path class="cls-3" d="M241.67,133.45a2.64,2.64,0,0,1-1.2-.26,2.08,2.08,0,0,1-.86-.75,2.16,2.16,0,0,1-.32-1.19,1.91,1.91,0,0,1,.2-.91,1.69,1.69,0,0,1,.58-.61,3.08,3.08,0,0,1,.88-.38,8.29,8.29,0,0,1,1.12-.21l1-.14a1.58,1.58,0,0,0,.64-.18.41.41,0,0,0,.22-.4v-.17a1.57,1.57,0,0,0-.44-1.17,1.7,1.7,0,0,0-1.26-.43A2.2,2.2,0,0,0,241,127a2.06,2.06,0,0,0-.69.82l-.79-.29a2.36,2.36,0,0,1,.68-1,2.59,2.59,0,0,1,1-.51,3.62,3.62,0,0,1,1.08-.16,3.35,3.35,0,0,1,.87.11,2.3,2.3,0,0,1,.83.37,2,2,0,0,1,.63.75,2.69,2.69,0,0,1,.24,1.21v5H244v-1.16h-.05a2.16,2.16,0,0,1-.45.63,2.35,2.35,0,0,1-.74.5A2.62,2.62,0,0,1,241.67,133.45Zm.11-.77a2.18,2.18,0,0,0,1.16-.3,2.08,2.08,0,0,0,.76-.8,2.34,2.34,0,0,0,.26-1.09v-1.06a.74.74,0,0,1-.31.16,4.71,4.71,0,0,1-.51.13,5.43,5.43,0,0,1-.56.09l-.51.07a4.53,4.53,0,0,0-1,.24,1.45,1.45,0,0,0-.66.44,1.14,1.14,0,0,0-.23.73,1.22,1.22,0,0,0,.47,1A1.83,1.83,0,0,0,241.78,132.68Z" transform="translate(-5 -2.09)"/><path class="cls-3" d="M255.77,126v.73h-3.45V126Zm-2.37-1.75h.84v7.14a1.37,1.37,0,0,0,.16.72.86.86,0,0,0,.4.36,1.36,1.36,0,0,0,.53.11l.29,0,.2-.05.18.77-.3.09a2.65,2.65,0,0,1-.44,0,2,2,0,0,1-.89-.21,1.71,1.71,0,0,1-.7-.61,1.76,1.76,0,0,1-.27-1Z" transform="translate(-5 -2.09)"/><path class="cls-3" d="M264,124.73a.6.6,0,0,1-.44-.18.58.58,0,0,1,0-.86.63.63,0,0,1,.88,0,.6.6,0,0,1,0,.86A.6.6,0,0,1,264,124.73Zm-.43,8.56V126h.84v7.3Z" transform="translate(-5 -2.09)"/><path class="cls-3" d="M277.4,127.59l-.77.22a1.93,1.93,0,0,0-.32-.6,1.41,1.41,0,0,0-.54-.42,1.82,1.82,0,0,0-.82-.16,2,2,0,0,0-1.2.35,1.08,1.08,0,0,0-.47.91,1,1,0,0,0,.32.77,2.47,2.47,0,0,0,1,.46l1.1.27a2.67,2.67,0,0,1,1.36.71,1.71,1.71,0,0,1,.45,1.21,1.82,1.82,0,0,1-.34,1.1,2.31,2.31,0,0,1-.94.76,3.4,3.4,0,0,1-1.4.27,3,3,0,0,1-1.75-.48,2.22,2.22,0,0,1-.88-1.4l.81-.2a1.66,1.66,0,0,0,.61,1,2,2,0,0,0,1.2.33,2.16,2.16,0,0,0,1.33-.38,1.16,1.16,0,0,0,.5-1,1,1,0,0,0-.29-.74,1.86,1.86,0,0,0-.89-.45l-1.18-.28a2.65,2.65,0,0,1-1.39-.72,1.72,1.72,0,0,1-.46-1.23,1.76,1.76,0,0,1,.33-1.06,2.12,2.12,0,0,1,.89-.72,3,3,0,0,1,1.3-.26,2.59,2.59,0,0,1,1.59.45A2.52,2.52,0,0,1,277.4,127.59Z" transform="translate(-5 -2.09)"/><path class="cls-3" d="M288.21,126v.73h-3.55V126Zm-2.44,7.3v-8.37a1.68,1.68,0,0,1,1-1.61,2.11,2.11,0,0,1,.93-.21,2.68,2.68,0,0,1,.54.05l.35.11-.25.74-.23-.06a1.33,1.33,0,0,0-1.18.27,1.2,1.2,0,0,0-.3.88v8.2Z" transform="translate(-5 -2.09)"/><path class="cls-3" d="M297.62,133.45a2.64,2.64,0,0,1-1.2-.26,2,2,0,0,1-.86-.75,2.16,2.16,0,0,1-.32-1.19,1.91,1.91,0,0,1,.2-.91,1.69,1.69,0,0,1,.58-.61,3,3,0,0,1,.88-.38,8.29,8.29,0,0,1,1.12-.21l1-.14a1.58,1.58,0,0,0,.64-.18.41.41,0,0,0,.22-.4v-.17a1.57,1.57,0,0,0-.44-1.17,1.72,1.72,0,0,0-1.26-.43,2.18,2.18,0,0,0-1.28.34,1.91,1.91,0,0,0-.69.82l-.79-.29a2.36,2.36,0,0,1,.68-1,2.55,2.55,0,0,1,1-.51,3.69,3.69,0,0,1,1.09-.16,3.35,3.35,0,0,1,.87.11,2.38,2.38,0,0,1,.83.37,2,2,0,0,1,.63.75,2.69,2.69,0,0,1,.24,1.21v5h-.84v-1.16h-.05a2.16,2.16,0,0,1-.45.63,2.47,2.47,0,0,1-.74.5A2.62,2.62,0,0,1,297.62,133.45Zm.11-.77a2.18,2.18,0,0,0,1.16-.3,2.06,2.06,0,0,0,.75-.8,2.23,2.23,0,0,0,.27-1.09v-1.06a.74.74,0,0,1-.31.16,4.71,4.71,0,0,1-.51.13l-.56.09-.51.07a4.53,4.53,0,0,0-1,.24,1.4,1.4,0,0,0-.66.44,1.08,1.08,0,0,0-.23.73,1.19,1.19,0,0,0,.47,1A1.83,1.83,0,0,0,297.73,132.68Z" transform="translate(-5 -2.09)"/><path class="cls-3" d="M311.7,133.44A2.9,2.9,0,0,1,310,133a3.28,3.28,0,0,1-1.12-1.34,4.64,4.64,0,0,1-.39-1.94,4.5,4.5,0,0,1,.4-1.95,3.31,3.31,0,0,1,1.12-1.35,2.92,2.92,0,0,1,1.66-.48,3,3,0,0,1,1.31.28,2.62,2.62,0,0,1,1,.79,2.68,2.68,0,0,1,.48,1.19h-.39a.62.62,0,0,1-.58-.38,2.06,2.06,0,0,0-.51-.67,1.84,1.84,0,0,0-1.27-.44,2.08,2.08,0,0,0-1.23.37,2.65,2.65,0,0,0-.83,1.05,3.81,3.81,0,0,0-.3,1.56,4,4,0,0,0,.29,1.57,2.5,2.5,0,0,0,.83,1.07,2,2,0,0,0,1.24.38,2.05,2.05,0,0,0,.87-.18,1.71,1.71,0,0,0,.67-.52,1.91,1.91,0,0,0,.37-.8h.84a2.51,2.51,0,0,1-.46,1.17,2.44,2.44,0,0,1-1,.81A2.86,2.86,0,0,1,311.7,133.44Z" transform="translate(-5 -2.09)"/><path class="cls-3" d="M325,126v.73h-3.45V126Zm-2.37-1.75h.84v7.14a1.37,1.37,0,0,0,.16.72.86.86,0,0,0,.4.36,1.4,1.4,0,0,0,.53.11l.29,0,.2-.05.18.77-.3.09a2.55,2.55,0,0,1-.44,0,2,2,0,0,1-.89-.21,1.78,1.78,0,0,1-.7-.61,1.76,1.76,0,0,1-.27-1Z" transform="translate(-5 -2.09)"/><path class="cls-3" d="M333.23,124.73a.6.6,0,0,1-.44-.18.58.58,0,0,1,0-.86.63.63,0,0,1,.88,0,.58.58,0,0,1,0,.86A.6.6,0,0,1,333.23,124.73Zm-.43,8.56V126h.84v7.3Z" transform="translate(-5 -2.09)"/><path class="cls-3" d="M344.57,133.44a2.91,2.91,0,0,1-1.65-.48,3.19,3.19,0,0,1-1.12-1.33,4.52,4.52,0,0,1-.41-2,4.58,4.58,0,0,1,.41-2,3.25,3.25,0,0,1,1.12-1.33,3,3,0,0,1,1.65-.47,2.92,2.92,0,0,1,1.66.48,3.27,3.27,0,0,1,1.12,1.33,4.91,4.91,0,0,1,0,3.93,3.19,3.19,0,0,1-1.12,1.33A2.92,2.92,0,0,1,344.57,133.44Zm0-.78a2,2,0,0,0,1.28-.4,2.59,2.59,0,0,0,.79-1.09,4.08,4.08,0,0,0,.27-1.5,4,4,0,0,0-.27-1.5,2.56,2.56,0,0,0-.79-1.1,2.19,2.19,0,0,0-2.55,0,2.56,2.56,0,0,0-.79,1.1,4,4,0,0,0-.27,1.5,4.08,4.08,0,0,0,.27,1.5,2.59,2.59,0,0,0,.79,1.09A2,2,0,0,0,344.57,132.66Z" transform="translate(-5 -2.09)"/><path class="cls-3" d="M356.33,128.72v4.57h-.84V126h.82v1.14h.07a2.1,2.1,0,0,1,.8-.9,2.41,2.41,0,0,1,1.33-.34,2.5,2.5,0,0,1,1.28.31,2.1,2.1,0,0,1,.87.9,3.19,3.19,0,0,1,.3,1.46v4.73h-.83v-4.68a2,2,0,0,0-.5-1.42,1.73,1.73,0,0,0-1.33-.52,2.07,2.07,0,0,0-1,.24,1.77,1.77,0,0,0-.7.71A2.26,2.26,0,0,0,356.33,128.72Z" transform="translate(-5 -2.09)"/><path class="cls-3" d="M379.14,124.73a.6.6,0,0,1-.44-.18.58.58,0,0,1,0-.86.63.63,0,0,1,.88,0,.6.6,0,0,1,0,.86A.6.6,0,0,1,379.14,124.73Zm-.43,8.56V126h.84v7.3Z" transform="translate(-5 -2.09)"/><path class="cls-3" d="M392.53,127.59l-.77.22a1.93,1.93,0,0,0-.32-.6,1.41,1.41,0,0,0-.54-.42,1.82,1.82,0,0,0-.82-.16,2,2,0,0,0-1.2.35,1.08,1.08,0,0,0-.47.91,1,1,0,0,0,.32.77,2.47,2.47,0,0,0,1,.46l1.1.27a2.67,2.67,0,0,1,1.36.71,1.71,1.71,0,0,1,.45,1.21,1.82,1.82,0,0,1-.34,1.1,2.31,2.31,0,0,1-.94.76,3.4,3.4,0,0,1-1.4.27,3,3,0,0,1-1.75-.48,2.22,2.22,0,0,1-.88-1.4l.81-.2a1.66,1.66,0,0,0,.61,1,2,2,0,0,0,1.2.33,2.16,2.16,0,0,0,1.33-.38,1.16,1.16,0,0,0,.5-1,1,1,0,0,0-.29-.74,1.86,1.86,0,0,0-.89-.45l-1.18-.28a2.65,2.65,0,0,1-1.39-.72,1.72,1.72,0,0,1-.46-1.23,1.76,1.76,0,0,1,.33-1.06,2.12,2.12,0,0,1,.89-.72,3,3,0,0,1,1.3-.26,2.59,2.59,0,0,1,1.59.45A2.52,2.52,0,0,1,392.53,127.59Z" transform="translate(-5 -2.09)"/><path class="cls-3" d="M418.07,128.42a6,6,0,0,1-.54,2.64,4.14,4.14,0,0,1-1.47,1.74,4.07,4.07,0,0,1-4.32,0,4.14,4.14,0,0,1-1.47-1.74,6.75,6.75,0,0,1,0-5.29,4.2,4.2,0,0,1,1.47-1.74,4.13,4.13,0,0,1,4.32,0,4.2,4.2,0,0,1,1.47,1.74A6.05,6.05,0,0,1,418.07,128.42Zm-.86,0a5.27,5.27,0,0,0-.43-2.24,3.37,3.37,0,0,0-1.18-1.43,3,3,0,0,0-1.7-.49,3,3,0,0,0-1.69.49,3.33,3.33,0,0,0-1.19,1.43,6,6,0,0,0,0,4.48,3.37,3.37,0,0,0,1.18,1.43,3.19,3.19,0,0,0,3.4,0,3.39,3.39,0,0,0,1.19-1.43A5.27,5.27,0,0,0,417.21,128.42Z" transform="translate(-5 -2.09)"/><path class="cls-3" d="M430.52,130.5V126h.83v7.3h-.83v-1.21h-.07a2.3,2.3,0,0,1-.8.93,2.35,2.35,0,0,1-1.35.37,2.49,2.49,0,0,1-1.23-.3,2.12,2.12,0,0,1-.84-.91,3,3,0,0,1-.31-1.45V126h.84v4.67a1.93,1.93,0,0,0,.5,1.38,1.68,1.68,0,0,0,1.28.52,2,2,0,0,0,1.68-.93A2,2,0,0,0,430.52,130.5Z" transform="translate(-5 -2.09)"/><path class="cls-3" d="M439.46,133.29V126h.82v1.12h.06a1.77,1.77,0,0,1,.76-.89,2.18,2.18,0,0,1,1.22-.34h.44v.86l-.2,0-.3,0a2.07,2.07,0,0,0-1,.24,1.78,1.78,0,0,0-.69.67,1.82,1.82,0,0,0-.26,1v4.72Z" transform="translate(-5 -2.09)"/><path class="cls-3" d="M467,126.59a.62.62,0,0,1-.58-.39,3.6,3.6,0,0,0-.26-.52,3,3,0,0,0-.63-.74,2.63,2.63,0,0,0-.86-.5,3.06,3.06,0,0,0-1.08-.18,3,3,0,0,0-1.69.49,3.29,3.29,0,0,0-1.17,1.43,6,6,0,0,0,0,4.48,3.39,3.39,0,0,0,1.19,1.43,3.07,3.07,0,0,0,1.73.49,3,3,0,0,0,1.57-.4A2.69,2.69,0,0,0,466.3,131a3.72,3.72,0,0,0,.37-1.76l.28.09h-3.08v-.8h3.66v.8a4.41,4.41,0,0,1-.5,2.15,3.51,3.51,0,0,1-1.37,1.41,4.29,4.29,0,0,1-4.21-.13,4.07,4.07,0,0,1-1.47-1.74,6.16,6.16,0,0,1-.53-2.64,6.71,6.71,0,0,1,.31-2.07,4.7,4.7,0,0,1,.85-1.58,3.85,3.85,0,0,1,1.31-1,4,4,0,0,1,1.68-.35,3.92,3.92,0,0,1,1.44.25,3.78,3.78,0,0,1,2.42,2.92Z" transform="translate(-5 -2.09)"/><path class="cls-3" d="M478.25,133.44a2.86,2.86,0,0,1-1.65-.48,3.21,3.21,0,0,1-1.13-1.33,4.52,4.52,0,0,1-.4-2,4.58,4.58,0,0,1,.4-2,3.28,3.28,0,0,1,1.13-1.33,3.1,3.1,0,0,1,3.3,0A3.19,3.19,0,0,1,481,127.7a4.36,4.36,0,0,1,.41,2,4.52,4.52,0,0,1-.4,2A3.21,3.21,0,0,1,479.9,133,2.88,2.88,0,0,1,478.25,133.44Zm0-.78a2,2,0,0,0,1.27-.4,2.61,2.61,0,0,0,.8-1.09,4.08,4.08,0,0,0,.27-1.5,4,4,0,0,0-.27-1.5,2.58,2.58,0,0,0-.8-1.1,2.17,2.17,0,0,0-2.54,0,2.58,2.58,0,0,0-.8,1.1,4,4,0,0,0-.27,1.5,4.08,4.08,0,0,0,.27,1.5,2.68,2.68,0,0,0,.79,1.09A2,2,0,0,0,478.25,132.66Z" transform="translate(-5 -2.09)"/><path class="cls-3" d="M491.19,133.45a2.64,2.64,0,0,1-1.2-.26,2.08,2.08,0,0,1-.86-.75,2.16,2.16,0,0,1-.32-1.19,1.91,1.91,0,0,1,.2-.91,1.69,1.69,0,0,1,.58-.61,3.08,3.08,0,0,1,.88-.38,8.29,8.29,0,0,1,1.12-.21l1-.14a1.58,1.58,0,0,0,.64-.18.41.41,0,0,0,.22-.4v-.17a1.57,1.57,0,0,0-.44-1.17,1.7,1.7,0,0,0-1.26-.43,2.2,2.2,0,0,0-1.28.34,2.06,2.06,0,0,0-.69.82l-.79-.29a2.36,2.36,0,0,1,.68-1,2.59,2.59,0,0,1,1-.51,3.62,3.62,0,0,1,1.08-.16,3.35,3.35,0,0,1,.87.11,2.3,2.3,0,0,1,.83.37,2,2,0,0,1,.63.75,2.69,2.69,0,0,1,.24,1.21v5h-.84v-1.16h-.05a2.16,2.16,0,0,1-.45.63,2.35,2.35,0,0,1-.74.5A2.62,2.62,0,0,1,491.19,133.45Zm.11-.77a2.18,2.18,0,0,0,1.16-.3,2.08,2.08,0,0,0,.76-.8,2.34,2.34,0,0,0,.26-1.09v-1.06a.74.74,0,0,1-.31.16,5.16,5.16,0,0,1-.5.13l-.57.09-.51.07a4.53,4.53,0,0,0-1,.24,1.45,1.45,0,0,0-.66.44,1.14,1.14,0,0,0-.23.73,1.22,1.22,0,0,0,.47,1A1.83,1.83,0,0,0,491.3,132.68Z" transform="translate(-5 -2.09)"/><path class="cls-3" d="M503.28,123.55v9.74h-.84v-9.74Z" transform="translate(-5 -2.09)"/><path class="cls-3" d="M167.12,104.37V78.28a.49.49,0,0,1,.48-.48h3.13a.48.48,0,0,1,.47.48v10.8a.49.49,0,0,0,.48.48h12.53a.49.49,0,0,0,.48-.48V78.28a.48.48,0,0,1,.47-.48h3.14a.49.49,0,0,1,.48.48v26.09a.48.48,0,0,1-.48.48h-3.14a.47.47,0,0,1-.47-.48V93.53a.48.48,0,0,0-.48-.47H171.68a.48.48,0,0,0-.48.47v10.84a.47.47,0,0,1-.47.48H167.6A.48.48,0,0,1,167.12,104.37Z" transform="translate(-5 -2.09)"/><path class="cls-3" d="M221.93,91.33a16.33,16.33,0,0,1-1.58,7.44,11.72,11.72,0,0,1-4.34,4.78,12.57,12.57,0,0,1-12.52,0,11.61,11.61,0,0,1-4.34-4.79,18.28,18.28,0,0,1,0-14.87,11.53,11.53,0,0,1,4.34-4.78,12.5,12.5,0,0,1,12.52,0,11.59,11.59,0,0,1,4.34,4.78A16.28,16.28,0,0,1,221.93,91.33Zm-4,0a13.06,13.06,0,0,0-1.06-5.57,7.92,7.92,0,0,0-2.91-3.43,8,8,0,0,0-8.34,0,8,8,0,0,0-2.9,3.43,15.14,15.14,0,0,0,0,11.13,8,8,0,0,0,2.9,3.44,8,8,0,0,0,8.34,0,7.94,7.94,0,0,0,2.91-3.44A13,13,0,0,0,217.89,91.33Z" transform="translate(-5 -2.09)"/><path class="cls-3" d="M231.2,77.8h4.15a.47.47,0,0,1,.44.3l8.49,20.73h.32l8.49-20.73a.47.47,0,0,1,.44-.3h4.15a.48.48,0,0,1,.48.48v26.09a.47.47,0,0,1-.48.48h-2.92a.47.47,0,0,1-.48-.48V85.28H254l-7.86,19.23a.48.48,0,0,1-.44.3h-2.58a.48.48,0,0,1-.44-.3l-7.86-19.24h-.25v19.1a.47.47,0,0,1-.48.48H231.2a.47.47,0,0,1-.48-.48V78.28A.48.48,0,0,1,231.2,77.8Z" transform="translate(-5 -2.09)"/><path class="cls-3" d="M267.82,104.37V78.28a.48.48,0,0,1,.48-.48h16a.49.49,0,0,1,.48.48v2.56a.49.49,0,0,1-.48.48H272.38a.47.47,0,0,0-.48.47v7.29a.48.48,0,0,0,.48.48h11a.47.47,0,0,1,.48.47v2.55a.48.48,0,0,1-.48.48h-11a.47.47,0,0,0-.48.47v7.33a.48.48,0,0,0,.48.48h12.08a.47.47,0,0,1,.47.47v2.56a.47.47,0,0,1-.47.48H268.3A.47.47,0,0,1,267.82,104.37Z" transform="translate(-5 -2.09)"/><path class="cls-3" d="M329.42,86.6h-3.16a.47.47,0,0,1-.46-.38,6.12,6.12,0,0,0-.81-1.94,6.48,6.48,0,0,0-1.59-1.71,6.73,6.73,0,0,0-2.09-1,8.2,8.2,0,0,0-2.45-.36,7.63,7.63,0,0,0-4.18,1.17,8,8,0,0,0-2.9,3.45,15,15,0,0,0,0,11.12,7.86,7.86,0,0,0,2.91,3.43,7.61,7.61,0,0,0,4.16,1.17,8.12,8.12,0,0,0,2.43-.36,6.85,6.85,0,0,0,2.1-1A6.58,6.58,0,0,0,325,98.42a6.2,6.2,0,0,0,.82-1.91.48.48,0,0,1,.46-.38h3.17a.48.48,0,0,1,.47.57,10.8,10.8,0,0,1-1.17,3.1,10.32,10.32,0,0,1-2.42,2.88,10.81,10.81,0,0,1-3.36,1.87,12.4,12.4,0,0,1-4.12.66,11.84,11.84,0,0,1-6.26-1.67,11.57,11.57,0,0,1-4.32-4.79,18.28,18.28,0,0,1,0-14.87,11.53,11.53,0,0,1,4.34-4.78,11.71,11.71,0,0,1,6.24-1.68,12.73,12.73,0,0,1,4,.62,10.67,10.67,0,0,1,3.36,1.8,9.77,9.77,0,0,1,2.47,2.87A11,11,0,0,1,329.89,86,.48.48,0,0,1,329.42,86.6Z" transform="translate(-5 -2.09)"/><path class="cls-3" d="M340.37,104.85h-3.31a.48.48,0,0,1-.45-.64L346,78.12a.48.48,0,0,1,.45-.32h4a.48.48,0,0,1,.45.32l9.39,26.09a.48.48,0,0,1-.45.64h-3.31a.47.47,0,0,1-.45-.32l-7.54-21.81h-.21l-7.55,21.81A.48.48,0,0,1,340.37,104.85Zm1.54-10.59H355a.48.48,0,0,1,.48.48v2.48a.48.48,0,0,1-.48.47h-13.1a.47.47,0,0,1-.47-.47V94.74A.47.47,0,0,1,341.91,94.26Z" transform="translate(-5 -2.09)"/><path class="cls-3" d="M368.17,104.37V78.28a.49.49,0,0,1,.48-.48h9.16A11.22,11.22,0,0,1,383,78.89a7.15,7.15,0,0,1,3.11,3,9.08,9.08,0,0,1,1,4.4,8.93,8.93,0,0,1-1,4.37A7,7,0,0,1,383,93.57a11.55,11.55,0,0,1-5.22,1.05H371a.48.48,0,0,1-.47-.48V91.58a.48.48,0,0,1,.47-.48h6.46a7.86,7.86,0,0,0,3.23-.57,3.7,3.7,0,0,0,1.83-1.65,5.51,5.51,0,0,0,.58-2.6,5.66,5.66,0,0,0-.59-2.65,3.93,3.93,0,0,0-1.84-1.73,7.56,7.56,0,0,0-3.26-.6h-4.65a.49.49,0,0,0-.48.48v22.59a.47.47,0,0,1-.48.48h-3.12A.48.48,0,0,1,368.17,104.37Zm13.49-11.48,6.16,11.25a.48.48,0,0,1-.42.71h-3.56a.49.49,0,0,1-.42-.25l-6-11.25a.47.47,0,0,1,.42-.7h3.44A.49.49,0,0,1,381.66,92.89Z" transform="translate(-5 -2.09)"/><path class="cls-3" d="M395.87,104.37V78.28a.48.48,0,0,1,.48-.48h16a.49.49,0,0,1,.48.48v2.56a.49.49,0,0,1-.48.48H400.43a.47.47,0,0,0-.48.47v7.29a.48.48,0,0,0,.48.48h11a.47.47,0,0,1,.48.47v2.55a.48.48,0,0,1-.48.48h-11a.47.47,0,0,0-.48.47v7.33a.48.48,0,0,0,.48.48h12.08a.47.47,0,0,1,.47.47v2.56a.47.47,0,0,1-.47.48H396.35A.47.47,0,0,1,395.87,104.37Z" transform="translate(-5 -2.09)"/><path class="cls-3" d="M435.58,104.37V78.28a.48.48,0,0,1,.48-.48h3.12a.48.48,0,0,1,.48.48v22.58a.48.48,0,0,0,.48.48h11.3a.48.48,0,0,1,.48.47v2.56a.48.48,0,0,1-.48.48H436.06A.47.47,0,0,1,435.58,104.37Z" transform="translate(-5 -2.09)"/><path class="cls-3" d="M460.28,104.37V78.28a.49.49,0,0,1,.48-.48h3.13a.48.48,0,0,1,.47.48v22.58a.49.49,0,0,0,.48.48h11.3a.48.48,0,0,1,.48.47v2.56a.48.48,0,0,1-.48.48H460.76A.48.48,0,0,1,460.28,104.37Z" transform="translate(-5 -2.09)"/><path class="cls-3" d="M505.82,86.6h-3.17a.48.48,0,0,1-.46-.38,6.12,6.12,0,0,0-.81-1.94,6.62,6.62,0,0,0-1.58-1.71,6.84,6.84,0,0,0-2.09-1,8.2,8.2,0,0,0-2.45-.36,7.63,7.63,0,0,0-4.18,1.17,8,8,0,0,0-2.91,3.45,15.11,15.11,0,0,0,0,11.12,7.86,7.86,0,0,0,2.91,3.43,7.64,7.64,0,0,0,4.16,1.17,8.14,8.14,0,0,0,2.44-.36,6.69,6.69,0,0,0,2.09-1,6.25,6.25,0,0,0,1.59-1.69,6,6,0,0,0,.83-1.91.48.48,0,0,1,.46-.38h3.16a.48.48,0,0,1,.47.57,10.8,10.8,0,0,1-1.17,3.1,10.12,10.12,0,0,1-2.41,2.88,10.81,10.81,0,0,1-3.36,1.87,12.4,12.4,0,0,1-4.12.66,11.84,11.84,0,0,1-6.26-1.67,11.66,11.66,0,0,1-4.33-4.79,18.34,18.34,0,0,1,0-14.87A11.57,11.57,0,0,1,489,79.11a11.72,11.72,0,0,1,6.25-1.68,12.82,12.82,0,0,1,4,.62,10.89,10.89,0,0,1,3.36,1.8,9.92,9.92,0,0,1,2.47,2.87A11.26,11.26,0,0,1,506.29,86,.48.48,0,0,1,505.82,86.6Z" transform="translate(-5 -2.09)"/></svg>