<svg id="Layer_1" data-name="Layer 1" xmlns="http://www.w3.org/2000/svg" xmlns:xlink="http://www.w3.org/1999/xlink" viewBox="0 0 504.71 137.6"><defs><style>.cls-1{fill:url(#linear-gradient);}.cls-2{fill:url(#linear-gradient-2);}.cls-3{fill:#475569;}</style><linearGradient id="linear-gradient" x1="90.34" y1="-68.81" x2="83.7" y2="73.8" gradientUnits="userSpaceOnUse"><stop offset="0.01" stop-color="#1877f2"/><stop offset="1" stop-color="#9540e0"/></linearGradient><linearGradient id="linear-gradient-2" x1="78.95" y1="-69.34" x2="72.31" y2="73.27" xlink:href="#linear-gradient"/></defs><path class="cls-1" d="M104.15,63.4a3,3,0,0,1-2.52-1.35,16.89,16.89,0,0,0-6.36-5.69,23.53,23.53,0,0,0-11-2.44q-10.92,0-17.51,7.18T60.19,80.25q0,12.77,6.91,19.94t19,7.17a23,23,0,0,0,14-4.21,22.13,22.13,0,0,0,6.48-7.67A3,3,0,0,0,103.91,91H83a3,3,0,0,1-3-3V77.5a3,3,0,0,1,3-3h42.88a3,3,0,0,1,3,3V94.91a3.28,3.28,0,0,1-.14.93,44.7,44.7,0,0,1-23.55,26.92,47.08,47.08,0,0,1-20.8,4.47,49.11,49.11,0,0,1-24.41-6A42.6,42.6,0,0,1,43.28,104.6a48.91,48.91,0,0,1-6-24.35,49.28,49.28,0,0,1,6-24.42A42.6,42.6,0,0,1,59.93,39.12a48.88,48.88,0,0,1,24.35-6q16.57,0,28,8a37.25,37.25,0,0,1,13.8,18.14,3.06,3.06,0,0,1-2.86,4.1Z" transform="translate(-3.64 -1.68)"/><path class="cls-2" d="M134.14,139.28H10.75a7.12,7.12,0,0,1-7.11-7.11V8.79a7.12,7.12,0,0,1,7.11-7.11H135.42a5.83,5.83,0,0,1,5.82,5.82V132.17A7.12,7.12,0,0,1,134.14,139.28ZM10.75,7.5A1.28,1.28,0,0,0,9.47,8.79V132.17a1.28,1.28,0,0,0,1.28,1.29H134.14a1.29,1.29,0,0,0,1.28-1.29V7.5Z" transform="translate(-3.64 -1.68)"/><rect class="cls-3" x="115.97" y="116.26" width="9.29" height="9.29" rx="1.5"/><path class="cls-3" d="M199.42,27.93a1,1,0,0,1-.82-.48,11.09,11.09,0,0,0-4.47-4.17,15.42,15.42,0,0,0-7.26-1.61,15,15,0,0,0-11.58,4.74q-4.35,4.74-4.35,12.66,0,8.43,4.57,13.18T188.08,57a14.47,14.47,0,0,0,14.3-9.46,1,1,0,0,0-.89-1.33H185a1,1,0,0,1-1-1v-9a1,1,0,0,1,1-1H215.4a1,1,0,0,1,1,1V48.92a1,1,0,0,1,0,.3,29.17,29.17,0,0,1-5.57,10.21,29.59,29.59,0,0,1-10.05,7.74,31.09,31.09,0,0,1-13.75,3,32.55,32.55,0,0,1-16.14-4,28.19,28.19,0,0,1-11.05-11,32.25,32.25,0,0,1-4-16.09,32.55,32.55,0,0,1,4-16.14,28.19,28.19,0,0,1,11-11,32.29,32.29,0,0,1,16.1-4q11,0,18.49,5.31A24.77,24.77,0,0,1,215,26.67a1,1,0,0,1-.91,1.26Z" transform="translate(-3.64 -1.68)"/><path class="cls-3" d="M262,58.91H240.54a1,1,0,0,0-.91.65L236.42,69a1,1,0,0,1-.91.65H222a1,1,0,0,1-.9-1.28L242.5,9.25a1,1,0,0,1,.9-.64h15.88a1,1,0,0,1,.9.64l21.41,59.16a1,1,0,0,1-.9,1.28H267a1,1,0,0,1-.91-.65l-3.21-9.48A1,1,0,0,0,262,58.91Zm-3.57-12.76-6.22-18.39a1,1,0,0,0-1.82,0l-6.16,18.4a1,1,0,0,0,.91,1.26h12.38A1,1,0,0,0,258.39,46.15Z" transform="translate(-3.64 -1.68)"/><path class="cls-3" d="M304.59,58.21h17.57a1,1,0,0,1,1,1v9.56a1,1,0,0,1-1,1H289.71a1,1,0,0,1-1-1V9.57a1,1,0,0,1,1-1h13a1,1,0,0,1,1,1V57.25A1,1,0,0,0,304.59,58.21Z" transform="translate(-3.64 -1.68)"/><path class="cls-3" d="M367.59,58.91H346.17a1,1,0,0,0-.91.65L342.05,69a1,1,0,0,1-.91.65H327.62a1,1,0,0,1-.9-1.28L348.13,9.25a1,1,0,0,1,.9-.64h15.88a1,1,0,0,1,.9.64l21.41,59.16a1,1,0,0,1-.91,1.28H372.62a1,1,0,0,1-.91-.65l-3.21-9.48A1,1,0,0,0,367.59,58.91ZM364,46.15,357.8,27.76a1,1,0,0,0-1.82,0l-6.16,18.4a1,1,0,0,0,.91,1.26h12.38A1,1,0,0,0,364,46.15Z" transform="translate(-3.64 -1.68)"/><path class="cls-3" d="M431.51,69.27l-11.31-17a1,1,0,0,0-1.62,0l-9.91,16.91a1,1,0,0,1-.83.47H393.25a1,1,0,0,1-.81-1.47l18.32-29.06a1,1,0,0,0,0-1l-18.67-28a1,1,0,0,1,.8-1.5h15a1,1,0,0,1,.79.43l11.14,16.74a1,1,0,0,0,1.62-.05l9.74-16.64a1,1,0,0,1,.83-.48h14.59a1,1,0,0,1,.81,1.48l-18.14,28.8a.94.94,0,0,0,0,1L448.12,68.2a1,1,0,0,1-.8,1.49h-15A1,1,0,0,1,431.51,69.27Z" transform="translate(-3.64 -1.68)"/><path class="cls-3" d="M508.25,10,487.94,49.3a1,1,0,0,0-.11.44v19a1,1,0,0,1-1,1h-13a1,1,0,0,1-1-1v-19a1,1,0,0,0-.11-.44L452.53,10a1,1,0,0,1,.85-1.41h14.69a1,1,0,0,1,.87.56L479.65,32.3a1,1,0,0,0,1.74,0L492,9.17a1,1,0,0,1,.87-.56H507.4A1,1,0,0,1,508.25,10Z" transform="translate(-3.64 -1.68)"/><path class="cls-3" d="M163,123.08h.84a.33.33,0,0,1,.27.15l2.78,4.5H167l2.78-4.5a.33.33,0,0,1,.27-.15h.84l-3.4,5.4a.67.67,0,0,0-.09.34v4.06h-.89v-4.06a.67.67,0,0,0-.09-.34Z" transform="translate(-3.64 -1.68)"/><path class="cls-3" d="M180.1,133a2.94,2.94,0,0,1-1.66-.48,3.24,3.24,0,0,1-1.13-1.34,4.56,4.56,0,0,1-.41-2,4.62,4.62,0,0,1,.41-2,3.24,3.24,0,0,1,1.13-1.34,3.13,3.13,0,0,1,3.33,0,3.39,3.39,0,0,1,1.13,1.34,4.62,4.62,0,0,1,.4,2,4.56,4.56,0,0,1-.4,2,3.24,3.24,0,0,1-1.13,1.34A3,3,0,0,1,180.1,133Zm0-.78a2.05,2.05,0,0,0,1.29-.41,2.5,2.5,0,0,0,.79-1.1,3.82,3.82,0,0,0,.28-1.5,3.9,3.9,0,0,0-.28-1.51,2.59,2.59,0,0,0-.79-1.11,2.22,2.22,0,0,0-2.57,0,2.61,2.61,0,0,0-.8,1.11,4.1,4.1,0,0,0-.27,1.51,4,4,0,0,0,.27,1.5,2.52,2.52,0,0,0,.8,1.1A2,2,0,0,0,180.1,132.25Z" transform="translate(-3.64 -1.68)"/><path class="cls-3" d="M195.71,130.07v-4.54h.84v7.35h-.84v-1.22h-.07a2.27,2.27,0,0,1-.81.94,2.33,2.33,0,0,1-1.35.37,2.43,2.43,0,0,1-1.24-.31,2,2,0,0,1-.84-.9,3.13,3.13,0,0,1-.31-1.47v-4.76h.84v4.71a1.93,1.93,0,0,0,.5,1.38,1.73,1.73,0,0,0,1.29.53,2,2,0,0,0,.95-.24,2.09,2.09,0,0,0,.75-.7A2.14,2.14,0,0,0,195.71,130.07Z" transform="translate(-3.64 -1.68)"/><path class="cls-3" d="M204.71,132.88v-7.35h.82v1.13h.06a1.89,1.89,0,0,1,.76-.9,2.34,2.34,0,0,1,1.23-.34H208v.86l-.2,0-.31,0a2,2,0,0,0-1,.25,1.78,1.78,0,0,0-.7.66,1.87,1.87,0,0,0-.25,1v4.75Z" transform="translate(-3.64 -1.68)"/><path class="cls-3" d="M230.52,125.53a1.78,1.78,0,0,0-.71-1.3,2.58,2.58,0,0,0-1.6-.48A3,3,0,0,0,227,124a1.92,1.92,0,0,0-.8.65,1.56,1.56,0,0,0-.29.94,1.37,1.37,0,0,0,.16.68,1.64,1.64,0,0,0,.45.5,2.75,2.75,0,0,0,.63.35,4.38,4.38,0,0,0,.69.25l1,.3a8.62,8.62,0,0,1,.93.33,3.8,3.8,0,0,1,.85.5,2.37,2.37,0,0,1,.62.75,2.13,2.13,0,0,1,.23,1,2.56,2.56,0,0,1-.4,1.42,2.88,2.88,0,0,1-1.15,1,4.2,4.2,0,0,1-1.81.36,4.16,4.16,0,0,1-1.72-.33,2.82,2.82,0,0,1-1.14-.92,2.53,2.53,0,0,1-.47-1.36h.39a.65.65,0,0,1,.61.46,1.57,1.57,0,0,0,.29.52,2,2,0,0,0,.86.61,3.18,3.18,0,0,0,1.18.21,3.22,3.22,0,0,0,1.29-.25,2,2,0,0,0,.89-.69,1.67,1.67,0,0,0,.33-1,1.33,1.33,0,0,0-.26-.83,2,2,0,0,0-.71-.57,7.12,7.12,0,0,0-1.06-.41l-1.16-.34a4.36,4.36,0,0,1-1.77-1,2.07,2.07,0,0,1-.63-1.55,2.36,2.36,0,0,1,.42-1.39,2.86,2.86,0,0,1,1.14-.94,3.77,3.77,0,0,1,1.61-.34,3.72,3.72,0,0,1,1.6.34,2.76,2.76,0,0,1,1.1.92,2.38,2.38,0,0,1,.44,1.33Z" transform="translate(-3.64 -1.68)"/><path class="cls-3" d="M241.44,133a2.64,2.64,0,0,1-1.2-.26,2,2,0,0,1-.87-.75,2.12,2.12,0,0,1-.32-1.21,1.94,1.94,0,0,1,.2-.91,1.72,1.72,0,0,1,.58-.62,3.31,3.31,0,0,1,.89-.37,6.94,6.94,0,0,1,1.12-.22l1-.13a2,2,0,0,0,.64-.18.44.44,0,0,0,.23-.41v-.17a1.56,1.56,0,0,0-.45-1.18,1.73,1.73,0,0,0-1.27-.43,2.13,2.13,0,0,0-1.28.35,1.85,1.85,0,0,0-.69.82l-.8-.29a2.33,2.33,0,0,1,.68-1,2.76,2.76,0,0,1,1-.52,3.75,3.75,0,0,1,1.1-.16,3.91,3.91,0,0,1,.87.11,2.45,2.45,0,0,1,.84.38,2,2,0,0,1,.63.75,2.73,2.73,0,0,1,.24,1.22v5h-.84v-1.16h-.06a2.35,2.35,0,0,1-1.19,1.13A2.68,2.68,0,0,1,241.44,133Zm.11-.77a2.22,2.22,0,0,0,1.17-.31,2,2,0,0,0,.76-.8,2.27,2.27,0,0,0,.27-1.1V129a.94.94,0,0,1-.32.16,4.71,4.71,0,0,1-.51.13c-.19,0-.38.07-.57.09l-.51.07a4.53,4.53,0,0,0-1.05.24,1.57,1.57,0,0,0-.67.44,1.16,1.16,0,0,0-.23.73,1.24,1.24,0,0,0,.47,1A1.94,1.94,0,0,0,241.55,132.27Z" transform="translate(-3.64 -1.68)"/><path class="cls-3" d="M255.63,125.53v.74h-3.48v-.74Zm-2.39-1.76h.85V131a1.43,1.43,0,0,0,.15.72.91.91,0,0,0,.41.37,1.41,1.41,0,0,0,.54.11,1.14,1.14,0,0,0,.28,0l.21,0,.18.77-.31.09a2.55,2.55,0,0,1-.44,0,2,2,0,0,1-.89-.21,1.81,1.81,0,0,1-.71-.61,1.79,1.79,0,0,1-.27-1Z" transform="translate(-3.64 -1.68)"/><path class="cls-3" d="M263.91,124.27a.6.6,0,0,1-.44-.18.56.56,0,0,1-.19-.43.58.58,0,0,1,.19-.44.64.64,0,0,1,.44-.17.66.66,0,0,1,.45.17.6.6,0,0,1,.18.44.58.58,0,0,1-.18.43A.63.63,0,0,1,263.91,124.27Zm-.43,8.61v-7.35h.85v7.35Z" transform="translate(-3.64 -1.68)"/><path class="cls-3" d="M277.38,127.14l-.77.22a1.77,1.77,0,0,0-.32-.59,1.43,1.43,0,0,0-.54-.43,1.86,1.86,0,0,0-.83-.16,2,2,0,0,0-1.21.36,1.07,1.07,0,0,0-.47.91,1,1,0,0,0,.32.77,2.39,2.39,0,0,0,1,.46l1.1.28a2.66,2.66,0,0,1,1.37.71,1.68,1.68,0,0,1,.46,1.22,1.92,1.92,0,0,1-.34,1.11,2.41,2.41,0,0,1-.95.76,3.48,3.48,0,0,1-1.41.27,3,3,0,0,1-1.76-.49,2.18,2.18,0,0,1-.88-1.4l.81-.2a1.63,1.63,0,0,0,.61,1,2,2,0,0,0,1.21.34,2.22,2.22,0,0,0,1.34-.38,1.19,1.19,0,0,0,.5-1,1,1,0,0,0-.3-.75,1.82,1.82,0,0,0-.89-.45l-1.19-.28a2.81,2.81,0,0,1-1.4-.73,1.76,1.76,0,0,1-.45-1.23,1.79,1.79,0,0,1,.33-1.07,2.13,2.13,0,0,1,.9-.73,3.14,3.14,0,0,1,1.3-.26,2.54,2.54,0,0,1,1.6.46A2.46,2.46,0,0,1,277.38,127.14Z" transform="translate(-3.64 -1.68)"/><path class="cls-3" d="M288.26,125.53v.74h-3.57v-.74Zm-2.46,7.35v-8.42a1.69,1.69,0,0,1,.28-1,1.71,1.71,0,0,1,.71-.62,2.11,2.11,0,0,1,.93-.21,2.72,2.72,0,0,1,.55.05l.35.11-.25.75-.23-.07a1.51,1.51,0,0,0-.34,0,1.15,1.15,0,0,0-.85.31,1.24,1.24,0,0,0-.3.89v8.25Z" transform="translate(-3.64 -1.68)"/><path class="cls-3" d="M297.72,133a2.64,2.64,0,0,1-1.2-.26,2.11,2.11,0,0,1-.87-.75,2.2,2.2,0,0,1-.32-1.21,1.94,1.94,0,0,1,.2-.91,1.72,1.72,0,0,1,.58-.62,3.45,3.45,0,0,1,.89-.37,6.86,6.86,0,0,1,1.13-.22l1-.13a2.05,2.05,0,0,0,.65-.18A.45.45,0,0,0,300,128v-.17a1.59,1.59,0,0,0-.44-1.18,1.75,1.75,0,0,0-1.28-.43,2.13,2.13,0,0,0-1.28.35,1.85,1.85,0,0,0-.69.82l-.8-.29a2.33,2.33,0,0,1,.68-1,2.81,2.81,0,0,1,1-.52,3.69,3.69,0,0,1,1.09-.16,3.84,3.84,0,0,1,.87.11,2.45,2.45,0,0,1,.84.38,2,2,0,0,1,.63.75,2.73,2.73,0,0,1,.24,1.22v5H300v-1.16h0a2.46,2.46,0,0,1-.45.63,2.4,2.4,0,0,1-.75.5A2.64,2.64,0,0,1,297.72,133Zm.12-.77A2.21,2.21,0,0,0,299,132a2,2,0,0,0,.76-.8,2.27,2.27,0,0,0,.27-1.1V129a.85.85,0,0,1-.32.16,4,4,0,0,1-.5.13c-.19,0-.38.07-.57.09l-.51.07a4.5,4.5,0,0,0-1.06.24,1.47,1.47,0,0,0-.66.44,1.11,1.11,0,0,0-.24.73,1.22,1.22,0,0,0,.48,1A1.9,1.9,0,0,0,297.84,132.27Z" transform="translate(-3.64 -1.68)"/><path class="cls-3" d="M311.89,133a2.93,2.93,0,0,1-1.7-.49,3.24,3.24,0,0,1-1.12-1.35,4.5,4.5,0,0,1-.4-1.95,4.75,4.75,0,0,1,.4-2,3.34,3.34,0,0,1,1.13-1.35,2.88,2.88,0,0,1,1.67-.49,3,3,0,0,1,1.32.29,2.62,2.62,0,0,1,1,.79,2.66,2.66,0,0,1,.49,1.2h-.4a.62.62,0,0,1-.58-.39,2.17,2.17,0,0,0-.51-.67,1.86,1.86,0,0,0-1.28-.44,2,2,0,0,0-1.24.38,2.51,2.51,0,0,0-.83,1,3.86,3.86,0,0,0-.3,1.57,4.12,4.12,0,0,0,.29,1.58,2.44,2.44,0,0,0,.83,1.07,2,2,0,0,0,1.25.39,2.13,2.13,0,0,0,.88-.18,1.84,1.84,0,0,0,.67-.53,1.89,1.89,0,0,0,.37-.81h.85a2.6,2.6,0,0,1-.47,1.19,2.45,2.45,0,0,1-1,.81A2.91,2.91,0,0,1,311.89,133Z" transform="translate(-3.64 -1.68)"/><path class="cls-3" d="M325.26,125.53v.74h-3.47v-.74Zm-2.38-1.76h.84V131a1.42,1.42,0,0,0,.16.72.86.86,0,0,0,.41.37,1.32,1.32,0,0,0,.53.11,1.23,1.23,0,0,0,.29,0l.2,0,.18.77-.3.09a2.65,2.65,0,0,1-.44,0,2,2,0,0,1-.9-.21,1.69,1.69,0,0,1-1-1.62Z" transform="translate(-3.64 -1.68)"/><path class="cls-3" d="M333.55,124.27a.64.64,0,0,1-.45-.18.58.58,0,0,1-.18-.43.6.6,0,0,1,.18-.44.68.68,0,0,1,.45-.17.64.64,0,0,1,.44.17.58.58,0,0,1,.19.44.56.56,0,0,1-.19.43A.6.6,0,0,1,333.55,124.27Zm-.43,8.61v-7.35H334v7.35Z" transform="translate(-3.64 -1.68)"/><path class="cls-3" d="M345,133a2.92,2.92,0,0,1-1.66-.48,3.24,3.24,0,0,1-1.13-1.34,4.56,4.56,0,0,1-.41-2,4.62,4.62,0,0,1,.41-2,3.24,3.24,0,0,1,1.13-1.34,3.11,3.11,0,0,1,3.32,0,3.31,3.31,0,0,1,1.13,1.34,4.48,4.48,0,0,1,.41,2,4.42,4.42,0,0,1-.41,2,3.22,3.22,0,0,1-1.12,1.34A3,3,0,0,1,345,133Zm0-.78a2,2,0,0,0,1.28-.41,2.52,2.52,0,0,0,.8-1.1,4,4,0,0,0,.27-1.5,4.1,4.1,0,0,0-.27-1.51,2.61,2.61,0,0,0-.8-1.11,2.2,2.2,0,0,0-2.56,0,2.61,2.61,0,0,0-.8,1.11,4.1,4.1,0,0,0-.27,1.51,4,4,0,0,0,.27,1.5,2.52,2.52,0,0,0,.8,1.1A2,2,0,0,0,345,132.25Z" transform="translate(-3.64 -1.68)"/><path class="cls-3" d="M356.79,128.29v4.59H356v-7.35h.82v1.15h.07a2.1,2.1,0,0,1,.8-.9,2.45,2.45,0,0,1,1.34-.34,2.67,2.67,0,0,1,1.29.3,2.19,2.19,0,0,1,.87.91,3.13,3.13,0,0,1,.31,1.47v4.76h-.84v-4.71a2,2,0,0,0-.5-1.43,1.77,1.77,0,0,0-1.34-.52,2.13,2.13,0,0,0-1,.24,1.8,1.8,0,0,0-.7.72A2.28,2.28,0,0,0,356.79,128.29Z" transform="translate(-3.64 -1.68)"/><path class="cls-3" d="M379.73,124.27a.6.6,0,0,1-.44-.18.56.56,0,0,1-.19-.43.58.58,0,0,1,.19-.44.64.64,0,0,1,.44-.17.66.66,0,0,1,.45.17.6.6,0,0,1,.18.44.58.58,0,0,1-.18.43A.63.63,0,0,1,379.73,124.27Zm-.43,8.61v-7.35h.85v7.35Z" transform="translate(-3.64 -1.68)"/><path class="cls-3" d="M393.2,127.14l-.77.22a1.77,1.77,0,0,0-.32-.59,1.43,1.43,0,0,0-.54-.43,1.89,1.89,0,0,0-.83-.16,1.93,1.93,0,0,0-1.21.36,1.07,1.07,0,0,0-.47.91,1,1,0,0,0,.32.77,2.39,2.39,0,0,0,1,.46l1.1.28a2.66,2.66,0,0,1,1.37.71,1.68,1.68,0,0,1,.46,1.22A1.92,1.92,0,0,1,393,132a2.41,2.41,0,0,1-1,.76,3.48,3.48,0,0,1-1.41.27,3,3,0,0,1-1.76-.49,2.18,2.18,0,0,1-.88-1.4l.81-.2a1.58,1.58,0,0,0,.61,1,2,2,0,0,0,1.2.34,2.18,2.18,0,0,0,1.34-.38,1.17,1.17,0,0,0,.51-1,1,1,0,0,0-.3-.75,1.82,1.82,0,0,0-.89-.45l-1.19-.28a2.81,2.81,0,0,1-1.4-.73,1.76,1.76,0,0,1-.45-1.23,1.79,1.79,0,0,1,.33-1.07,2.16,2.16,0,0,1,.89-.73,3.22,3.22,0,0,1,1.31-.26,2.54,2.54,0,0,1,1.6.46A2.46,2.46,0,0,1,393.2,127.14Z" transform="translate(-3.64 -1.68)"/><path class="cls-3" d="M418.9,128a6.1,6.1,0,0,1-.54,2.66,4.15,4.15,0,0,1-1.49,1.75,4.11,4.11,0,0,1-4.34,0,4.13,4.13,0,0,1-1.48-1.75,6.82,6.82,0,0,1,0-5.32,4.19,4.19,0,0,1,1.48-1.75,4.11,4.11,0,0,1,4.34,0,4.21,4.21,0,0,1,1.49,1.75A6.1,6.1,0,0,1,418.9,128Zm-.87,0a5.28,5.28,0,0,0-.43-2.25,3.36,3.36,0,0,0-1.19-1.44,3.16,3.16,0,0,0-3.41,0,3.32,3.32,0,0,0-1.19,1.43,5.21,5.21,0,0,0-.44,2.26,5.28,5.28,0,0,0,.43,2.25,3.36,3.36,0,0,0,1.19,1.44,3.17,3.17,0,0,0,3.42,0,3.29,3.29,0,0,0,1.19-1.44A5.14,5.14,0,0,0,418,128Z" transform="translate(-3.64 -1.68)"/><path class="cls-3" d="M431.42,130.07v-4.54h.84v7.35h-.84v-1.22h-.07a2.27,2.27,0,0,1-.81.94,2.35,2.35,0,0,1-1.35.37,2.4,2.4,0,0,1-1.24-.31,2.12,2.12,0,0,1-.85-.9,3.26,3.26,0,0,1-.3-1.47v-4.76h.84v4.71a1.93,1.93,0,0,0,.5,1.38,1.71,1.71,0,0,0,1.29.53,2,2,0,0,0,.95-.24,2,2,0,0,0,.74-.7A2.06,2.06,0,0,0,431.42,130.07Z" transform="translate(-3.64 -1.68)"/><path class="cls-3" d="M440.42,132.88v-7.35h.82v1.13h.06a1.84,1.84,0,0,1,.76-.9,2.32,2.32,0,0,1,1.23-.34h.44v.86l-.2,0-.3,0a2,2,0,0,0-1,.25,1.78,1.78,0,0,0-.7.66,1.88,1.88,0,0,0-.26,1v4.75Z" transform="translate(-3.64 -1.68)"/><path class="cls-3" d="M468.13,126.14a.63.63,0,0,1-.59-.39,3.54,3.54,0,0,0-.25-.52,2.71,2.71,0,0,0-.64-.75,2.76,2.76,0,0,0-.86-.51,3.16,3.16,0,0,0-1.09-.18,3,3,0,0,0-1.7.5,3.37,3.37,0,0,0-1.18,1.43,5.36,5.36,0,0,0-.43,2.26,5.28,5.28,0,0,0,.43,2.25,3.31,3.31,0,0,0,1.2,1.44,3.3,3.3,0,0,0,3.32.1,2.77,2.77,0,0,0,1.07-1.15,3.79,3.79,0,0,0,.38-1.77l.28.09H465v-.81h3.68v.81a4.48,4.48,0,0,1-.5,2.16,3.6,3.6,0,0,1-1.38,1.41,3.9,3.9,0,0,1-2,.5,3.91,3.91,0,0,1-3.7-2.37,6.25,6.25,0,0,1-.53-2.66,6.74,6.74,0,0,1,.3-2.08,4.67,4.67,0,0,1,.86-1.59,3.82,3.82,0,0,1,1.32-1,4.05,4.05,0,0,1,1.69-.35,4,4,0,0,1,1.45.25,3.83,3.83,0,0,1,1.17.7,3.91,3.91,0,0,1,.83,1,3.78,3.78,0,0,1,.43,1.22Z" transform="translate(-3.64 -1.68)"/><path class="cls-3" d="M479.44,133a3,3,0,0,1-1.67-.48,3.24,3.24,0,0,1-1.13-1.34,4.56,4.56,0,0,1-.4-2,4.62,4.62,0,0,1,.4-2,3.24,3.24,0,0,1,1.13-1.34,3.13,3.13,0,0,1,3.33,0,3.39,3.39,0,0,1,1.13,1.34,4.62,4.62,0,0,1,.41,2,4.56,4.56,0,0,1-.41,2,3.24,3.24,0,0,1-1.13,1.34A2.94,2.94,0,0,1,479.44,133Zm0-.78a2,2,0,0,0,1.28-.41,2.52,2.52,0,0,0,.8-1.1,4,4,0,0,0,.27-1.5,4.1,4.1,0,0,0-.27-1.51,2.61,2.61,0,0,0-.8-1.11,2.2,2.2,0,0,0-2.56,0,2.53,2.53,0,0,0-.8,1.11,3.9,3.9,0,0,0-.28,1.51,3.82,3.82,0,0,0,.28,1.5,2.5,2.5,0,0,0,.79,1.1A2.05,2.05,0,0,0,479.44,132.25Z" transform="translate(-3.64 -1.68)"/><path class="cls-3" d="M492.45,133a2.64,2.64,0,0,1-1.2-.26,2.11,2.11,0,0,1-.87-.75,2.2,2.2,0,0,1-.32-1.21,1.83,1.83,0,0,1,.21-.91,1.61,1.61,0,0,1,.57-.62,3.45,3.45,0,0,1,.89-.37,7.07,7.07,0,0,1,1.13-.22l1-.13a2.05,2.05,0,0,0,.65-.18.44.44,0,0,0,.22-.41v-.17a1.59,1.59,0,0,0-.44-1.18,1.75,1.75,0,0,0-1.27-.43,2.14,2.14,0,0,0-1.29.35,1.85,1.85,0,0,0-.69.82l-.8-.29a2.33,2.33,0,0,1,.68-1,2.81,2.81,0,0,1,1-.52,3.69,3.69,0,0,1,1.09-.16,3.84,3.84,0,0,1,.87.11,2.45,2.45,0,0,1,.84.38,2,2,0,0,1,.63.75,2.73,2.73,0,0,1,.24,1.22v5h-.84v-1.16h-.05a2.46,2.46,0,0,1-.45.63,2.4,2.4,0,0,1-.75.5A2.64,2.64,0,0,1,492.45,133Zm.12-.77a2.18,2.18,0,0,0,1.16-.31,2,2,0,0,0,.76-.8,2.27,2.27,0,0,0,.27-1.1V129a.85.85,0,0,1-.32.16,4,4,0,0,1-.5.13c-.19,0-.38.07-.57.09l-.51.07a4.75,4.75,0,0,0-1.06.24,1.47,1.47,0,0,0-.66.44,1.1,1.1,0,0,0-.23.73,1.22,1.22,0,0,0,.47,1A1.9,1.9,0,0,0,492.57,132.27Z" transform="translate(-3.64 -1.68)"/><path class="cls-3" d="M504.62,123.08v9.8h-.84v-9.8Z" transform="translate(-3.64 -1.68)"/><path class="cls-3" d="M166.45,103.79V77.54a.48.48,0,0,1,.48-.48h3.14a.48.48,0,0,1,.48.48V88.41a.49.49,0,0,0,.48.48h12.6a.48.48,0,0,0,.48-.48V77.54a.49.49,0,0,1,.48-.48h3.16a.48.48,0,0,1,.48.48v26.25a.48.48,0,0,1-.48.48h-3.16a.49.49,0,0,1-.48-.48V92.89a.47.47,0,0,0-.48-.48H171a.48.48,0,0,0-.48.48v10.9a.48.48,0,0,1-.48.48h-3.14A.48.48,0,0,1,166.45,103.79Z" transform="translate(-3.64 -1.68)"/><path class="cls-3" d="M221.58,90.67A16.32,16.32,0,0,1,220,98.15a11.65,11.65,0,0,1-4.36,4.81,12.65,12.65,0,0,1-12.6,0,11.68,11.68,0,0,1-4.36-4.82,18.28,18.28,0,0,1,0-15A11.65,11.65,0,0,1,203,78.37a12.65,12.65,0,0,1,12.6,0A11.65,11.65,0,0,1,220,83.18,16.36,16.36,0,0,1,221.58,90.67Zm-4.06,0a13.13,13.13,0,0,0-1.07-5.6,8,8,0,0,0-2.92-3.46,8.11,8.11,0,0,0-8.39,0,8,8,0,0,0-2.92,3.46,15.19,15.19,0,0,0,0,11.2,8.05,8.05,0,0,0,2.92,3.45,8.11,8.11,0,0,0,8.39,0,8.05,8.05,0,0,0,2.92-3.45A13.19,13.19,0,0,0,217.52,90.67Z" transform="translate(-3.64 -1.68)"/><path class="cls-3" d="M230.9,77.06h4.18a.48.48,0,0,1,.45.3l8.54,20.85h.32l8.54-20.85a.48.48,0,0,1,.44-.3h4.18a.48.48,0,0,1,.48.48v26.25a.48.48,0,0,1-.48.48h-3a.49.49,0,0,1-.48-.48V84.58h-.25L246,103.93a.48.48,0,0,1-.44.3h-2.6a.49.49,0,0,1-.45-.3l-7.9-19.36h-.25v19.22a.48.48,0,0,1-.48.48H230.9a.49.49,0,0,1-.48-.48V77.54A.49.49,0,0,1,230.9,77.06Z" transform="translate(-3.64 -1.68)"/><path class="cls-3" d="M267.75,103.79V77.54a.48.48,0,0,1,.48-.48h16.1a.49.49,0,0,1,.48.48v2.58a.49.49,0,0,1-.48.48h-12a.48.48,0,0,0-.48.48v7.33a.49.49,0,0,0,.48.48h11.1a.48.48,0,0,1,.49.48v2.56a.49.49,0,0,1-.49.48h-11.1a.48.48,0,0,0-.48.48v7.36a.48.48,0,0,0,.48.48h12.15a.48.48,0,0,1,.48.48v2.58a.48.48,0,0,1-.48.48H268.23A.48.48,0,0,1,267.75,103.79Z" transform="translate(-3.64 -1.68)"/><path class="cls-3" d="M329.72,85.91h-3.18a.48.48,0,0,1-.47-.38,6.23,6.23,0,0,0-.81-2,6.69,6.69,0,0,0-1.6-1.71,6.6,6.6,0,0,0-2.1-1.06,8.34,8.34,0,0,0-2.47-.36,7.65,7.65,0,0,0-4.2,1.18A7.93,7.93,0,0,0,312,85.09a15.14,15.14,0,0,0,0,11.18,7.92,7.92,0,0,0,2.93,3.46,7.76,7.76,0,0,0,4.18,1.16,8.2,8.2,0,0,0,2.45-.35,6.82,6.82,0,0,0,2.11-1,6.61,6.61,0,0,0,1.6-1.69,6.44,6.44,0,0,0,.83-1.93.48.48,0,0,1,.46-.38h3.18a.48.48,0,0,1,.47.57A11,11,0,0,1,329,99.2a10.13,10.13,0,0,1-2.43,2.9A11.15,11.15,0,0,1,323.2,104a12.58,12.58,0,0,1-4.15.66,11.86,11.86,0,0,1-6.29-1.68,11.59,11.59,0,0,1-4.35-4.82,18.39,18.39,0,0,1,0-15,11.72,11.72,0,0,1,4.36-4.81,11.85,11.85,0,0,1,6.28-1.68,12.92,12.92,0,0,1,4.05.62,10.7,10.7,0,0,1,3.38,1.81A9.89,9.89,0,0,1,329,82a11,11,0,0,1,1.23,3.33A.48.48,0,0,1,329.72,85.91Z" transform="translate(-3.64 -1.68)"/><path class="cls-3" d="M340.73,104.27H337.4a.48.48,0,0,1-.45-.64l9.44-26.25a.48.48,0,0,1,.45-.32h4.07a.47.47,0,0,1,.45.32l9.45,26.25a.48.48,0,0,1-.45.64H357a.49.49,0,0,1-.46-.32L349,82h-.21l-7.59,22A.49.49,0,0,1,340.73,104.27Zm1.55-10.66h13.18a.49.49,0,0,1,.48.48v2.5a.49.49,0,0,1-.48.48H342.28a.49.49,0,0,1-.48-.48v-2.5A.49.49,0,0,1,342.28,93.61Z" transform="translate(-3.64 -1.68)"/><path class="cls-3" d="M368.7,103.79V77.54a.48.48,0,0,1,.48-.48h9.22a11.38,11.38,0,0,1,5.25,1.09,7.24,7.24,0,0,1,3.13,3,9.2,9.2,0,0,1,1,4.43A8.88,8.88,0,0,1,386.77,90a7.09,7.09,0,0,1-3.13,2.94,11.7,11.7,0,0,1-5.26,1h-6.86a.47.47,0,0,1-.48-.48V90.92a.47.47,0,0,1,.48-.48H378a7.92,7.92,0,0,0,3.25-.57,3.8,3.8,0,0,0,1.84-1.66,5.48,5.48,0,0,0,.58-2.62,5.6,5.6,0,0,0-.59-2.67,3.92,3.92,0,0,0-1.84-1.73,7.55,7.55,0,0,0-3.29-.61h-4.68a.49.49,0,0,0-.48.48v22.73a.48.48,0,0,1-.48.48h-3.14A.48.48,0,0,1,368.7,103.79Zm13.57-11.55,6.19,11.32a.48.48,0,0,1-.42.71h-3.58A.49.49,0,0,1,384,104L378,92.7a.48.48,0,0,1,.42-.71h3.46A.5.5,0,0,1,382.27,92.24Z" transform="translate(-3.64 -1.68)"/><path class="cls-3" d="M396.56,103.79V77.54a.49.49,0,0,1,.48-.48h16.1a.48.48,0,0,1,.48.48v2.58a.48.48,0,0,1-.48.48h-12a.47.47,0,0,0-.48.48v7.33a.48.48,0,0,0,.48.48h11.1a.47.47,0,0,1,.48.48v2.56a.48.48,0,0,1-.48.48h-11.1a.47.47,0,0,0-.48.48v7.36a.47.47,0,0,0,.48.48H413.3a.48.48,0,0,1,.48.48v2.58a.48.48,0,0,1-.48.48H397A.49.49,0,0,1,396.56,103.79Z" transform="translate(-3.64 -1.68)"/><path class="cls-3" d="M436.51,103.79V77.54a.49.49,0,0,1,.48-.48h3.15a.49.49,0,0,1,.48.48v22.71a.47.47,0,0,0,.48.48h11.36a.48.48,0,0,1,.48.48v2.58a.48.48,0,0,1-.48.48H437A.49.49,0,0,1,436.51,103.79Z" transform="translate(-3.64 -1.68)"/><path class="cls-3" d="M461.36,103.79V77.54a.49.49,0,0,1,.48-.48H465a.49.49,0,0,1,.48.48v22.71a.47.47,0,0,0,.48.48h11.36a.48.48,0,0,1,.48.48v2.58a.48.48,0,0,1-.48.48H461.84A.49.49,0,0,1,461.36,103.79Z" transform="translate(-3.64 -1.68)"/><path class="cls-3" d="M507.17,85.91H504a.48.48,0,0,1-.47-.38,6.23,6.23,0,0,0-.81-2,6.65,6.65,0,0,0-1.59-1.71A6.75,6.75,0,0,0,499,80.8a8.27,8.27,0,0,0-2.46-.36,7.66,7.66,0,0,0-4.21,1.18,8,8,0,0,0-2.92,3.47,15.14,15.14,0,0,0,0,11.18,7.92,7.92,0,0,0,2.93,3.46,7.76,7.76,0,0,0,4.18,1.16,8.2,8.2,0,0,0,2.45-.35,6.82,6.82,0,0,0,2.11-1,6.61,6.61,0,0,0,1.6-1.69,6.44,6.44,0,0,0,.83-1.93.48.48,0,0,1,.46-.38h3.18a.48.48,0,0,1,.48.57,11.06,11.06,0,0,1-1.18,3.12,10.13,10.13,0,0,1-2.43,2.9,11.15,11.15,0,0,1-3.38,1.88,12.57,12.57,0,0,1-4.14.66,11.87,11.87,0,0,1-6.3-1.68,11.66,11.66,0,0,1-4.35-4.82,18.34,18.34,0,0,1,0-15,11.63,11.63,0,0,1,4.35-4.81,11.86,11.86,0,0,1,6.29-1.68,12.9,12.9,0,0,1,4,.62,10.7,10.7,0,0,1,3.38,1.81A10.07,10.07,0,0,1,506.42,82a11,11,0,0,1,1.22,3.33A.48.48,0,0,1,507.17,85.91Z" transform="translate(-3.64 -1.68)"/></svg>